<?xml version="1.0" encoding="utf-8"?>
<!-- Generator: Adobe Illustrator 24.0.2, SVG Export Plug-In . SVG Version: 6.00 Build 0)  -->
<svg version="1.1" id="Layer_1" xmlns="http://www.w3.org/2000/svg" xmlns:xlink="http://www.w3.org/1999/xlink" x="0px" y="0px"
	 viewBox="0 0 1000 1000" style="enable-background:new 0 0 1000 1000;" xml:space="preserve">
<style type="text/css">
	.st0{fill:#D89377;stroke:#6B2009;stroke-width:1.1354;stroke-miterlimit:10;}
	.st1{fill:#F4B092;stroke:#89351B;stroke-width:1.5201;stroke-miterlimit:10;}
	.st2{opacity:0.26;fill:#3F1C18;enable-background:new    ;}
	.st3{opacity:0.33;fill:#3F1C18;enable-background:new    ;}
	.st4{opacity:0.53;fill:#3F1C18;enable-background:new    ;}
	.st5{opacity:0.14;fill:#3F1C18;enable-background:new    ;}
	.st6{fill:#F4B092;}
	.st7{opacity:0.26;fill:#F9352B;enable-background:new    ;}
	.st8{opacity:0.8;fill:#AF0505;enable-background:new    ;}
	.st9{opacity:7.000000e-02;fill:#491507;enable-background:new    ;}
	.st10{opacity:0.1;fill:#3F1C18;enable-background:new    ;}
	.st11{opacity:0.67;fill:#3F1C18;enable-background:new    ;}
	.st12{opacity:0.22;fill:#3F1C18;enable-background:new    ;}
	.st13{opacity:0.33;fill:#FFFFFF;enable-background:new    ;}
	.st14{opacity:8.000000e-02;fill:#3F1C18;enable-background:new    ;}
	.st15{opacity:0.2;fill:#FFFFFF;enable-background:new    ;}
	.st16{opacity:0.11;fill:#FFFFFF;enable-background:new    ;}
	.st17{opacity:0.25;fill:#FFFFFF;enable-background:new    ;}
	.st18{opacity:0.1;fill:#FFFFFF;enable-background:new    ;}
	.st19{opacity:0.14;fill:#F9352B;enable-background:new    ;}
	.st20{fill:#E29476;}
	.st21{opacity:0.18;fill:#3F1C18;enable-background:new    ;}
	.st22{opacity:9.000000e-02;fill:#3F1C18;enable-background:new    ;}
	.st23{opacity:0.14;fill:#FFFFFF;enable-background:new    ;}
	.st24{fill:#3F1C18;}
	.st25{opacity:0.43;fill:#FC1200;enable-background:new    ;}
	.st26{fill:#FF1A2B;}
	.st27{fill:none;stroke:#6B2009;stroke-width:1.0134;stroke-miterlimit:10;}
	.st28{fill:#70200D;stroke:#440E06;stroke-width:1.5201;stroke-miterlimit:10;}
	.st29{fill:#5B1507;}
	.st30{opacity:0.33;fill:#CC6250;enable-background:new    ;}
	.st31{opacity:0.11;fill:#491507;enable-background:new    ;}
	.st32{fill:#FFFFFF;}
	.st33{fill:none;}
	.st34{fill:#AA6F4F;stroke:#000000;stroke-width:0.1682;stroke-miterlimit:10;}
	.st35{fill:none;stroke:#000000;stroke-width:0.2523;stroke-miterlimit:10;}
	.st36{opacity:0.48;fill:#54190A;enable-background:new    ;}
	.st37{fill:none;stroke:#491507;stroke-width:0.1596;stroke-miterlimit:10;}
	.st38{opacity:8.000000e-02;fill:#FFFFFF;enable-background:new    ;}
	.st39{opacity:5.000000e-02;fill:#491507;enable-background:new    ;}
	.st40{opacity:0.11;}
	.st41{fill:#491507;}
	.st42{opacity:0.22;fill:#491507;enable-background:new    ;}
	.st43{clip-path:url(#SVGID_2_);}
	.st44{fill:#963618;stroke:#000000;stroke-width:2.3549;stroke-miterlimit:10;}
	.st45{opacity:0.28;enable-background:new    ;}
	.st46{fill:#AA5509;}
	.st47{opacity:0.67;}
	.st48{opacity:0.56;fill:#FFFFFF;enable-background:new    ;}
	.st49{opacity:0.57;fill:#FFFFFF;enable-background:new    ;}
	.st50{opacity:0.8;fill:#FFFFFF;enable-background:new    ;}
	.st51{clip-path:url(#SVGID_4_);}
	.st52{clip-path:url(#SVGID_6_);}
	.st53{fill:none;stroke:#491507;stroke-width:0.1682;stroke-miterlimit:10;}
	.st54{fill:none;stroke:#000000;stroke-width:1.0092;stroke-linecap:round;stroke-linejoin:round;stroke-miterlimit:10;}
	.st55{fill:#E53E28;}
	.st56{fill:#FCE4DB;}
	.st57{fill:#682910;}
	.st58{fill:#F4B092;stroke:#6B2009;stroke-width:1.7031;stroke-miterlimit:10;}
	.st59{opacity:0.47;fill:#FFFFFF;stroke:#440E06;stroke-width:0.5677;stroke-miterlimit:10;enable-background:new    ;}
	.st60{fill:#F4B092;stroke:#6B2009;stroke-width:0.4564;stroke-miterlimit:10;}
	.st61{fill:none;stroke:#000000;stroke-width:0.9055;stroke-miterlimit:10;}
	.st62{font-family:'ArialMT';}
	.st63{font-size:35px;}
	.st64{opacity:0.56;fill:#F70000;enable-background:new    ;}
	.st65{fill:#F70000;}
	.st66{fill:none;stroke:#491507;stroke-width:0.9055;stroke-miterlimit:10;}
	.st67{fill:none;stroke:#000000;stroke-width:0.7815;stroke-miterlimit:10;}
	.st68{opacity:0.18;fill:#F9352B;enable-background:new    ;}
	.st69{fill:none;stroke:#000000;stroke-width:1.042;stroke-miterlimit:10;}
	.st70{opacity:0.55;fill:#FFFFFF;stroke:#000000;stroke-miterlimit:10;enable-background:new    ;}
	.st71{opacity:0.39;fill:none;stroke:#934D4D;stroke-width:2;stroke-miterlimit:10;enable-background:new    ;}
</style>
<path d="M145.5,1000l37.8-74.1c0,0,42.6-37.8,55.2-41S445,850.2,445,850.2s225.5,3.2,266.5,22.1c41,18.9,148.2,67.8,175,86.7
	s36.3,42.6,36.3,42.6L145.5,1000z"/>
<path class="st0" d="M259.9,589.4c0,0-1.3-57.7,0.9-70.7c2.2-13,6.3-9.8,13.4-16.1s33.1-34,50.1-37.6S259.9,589.4,259.9,589.4z"/>
<path class="st0" d="M394.1,532.4c-6.5-11.3-25-6.3-28.7,5.1c-6.1,15.5-18.2,29.4-18.9,46.6c-2.3,9.2-7.3,17.6-11,26.3l-1.2,2.2
	c-0.4,0.2-0.8,0.1-1.4-0.2c-1.4,3.4-1.5,3.8-0.3,3.7c-0.2,3-2,26.5,3.6,16.4c6-10.7,19.1-16.1,19.1-16.1l-0.4-0.6
	c15.3-8.8,37.6-38.4,37.6-38.4C393.6,562.8,398.6,546.5,394.1,532.4z"/>
<path class="st1" d="M670.6,752c0,0-6.2,22.5,0,75.6c6.4,54.3,10.6,57.5,10.6,57.5s-59.9,65.8-121.1,66
	c-61.1,0.1-123.4-65.4-123.9-67.6c-1.1-4.3,23.4-68.7,17-112.4s6.6-6.9,6.6-6.9L670.6,752z"/>
<path class="st2" d="M554.3,611.5c0,0,52.7,41.3,107.3,10s45.7-98-35.2-100.3s-83.7,57.6-81.6,73.8S554.3,611.5,554.3,611.5z"/>
<path class="st3" d="M468.1,780.8l-10.6,4.3c0,0,38.4,43.7,69.2,51.1c30.9,7.4,36.2-2.1,46.9-8.5
	C584.3,821.2,468.1,780.8,468.1,780.8z"/>
<path class="st4" d="M556.9,559c0,0,33.3-43.7,88.6-30.6c55.3,13,63.5,70.9-6.8,92.3c-70.3,21.4-87.1-28.1-89.2-42.1
	C547.5,564.4,556.9,559,556.9,559z"/>
<path class="st5" d="M670.6,827.6c-3.7-31.3-3-52-1.9-63.7c-1.2,0.4-2.4,1-3.5,1.9c-7.4,6.4-53.3,47.9-75.6,55.4s42.6,8.5,33,21.3
	C613,855.2,575.9,948,575.9,948l34.7-1.6c25.2-18.9,69.4-53.6,69.4-53.6S676.9,882,670.6,827.6z"/>
<path class="st6" d="M506.4,420.5c-12-2.1-169.3-3.1-173.2,74.8c0,0,23.5,71.3,30.4,98.1s27.5,143.8,69,183.6
	c41.4,39.8,82.5,50.1,104.7,59.2c19,7.8,37.3,6.7,42.3,6.2v0.1c0,0,0.2,0,0.7-0.1c0.4-0.1,0.7-0.1,0.7-0.1v-0.1
	c4.9-0.9,22.8-5,38.8-17.8c18.7-15,51.1-35.9,79.6-85.6c28.6-49.7,15.6-167.9,14.7-195.5c-0.1-2.2-0.1-4.6-0.1-6.9
	c0-26.6-2.4-102.9-2.4-102.9C685.7,359.8,517.3,415.1,506.4,420.5z"/>
<path class="st7" d="M494.9,749.7c0,0,24.4-26.5,34.2-31.1c9.9-4.6,10.3-7.1,16.4-6.3c6.1,0.7,14.6-2.9,21.9-4.7
	c7.3-1.9,54.1,24.1,64.4,22.6c0,0-33.8,27.4-50,29.7s-25.5,0.4-30.5,2.8C546.4,764.9,506.2,755.3,494.9,749.7z"/>
<path class="st8" d="M505.1,746.2c0,0,32.5-22.9,42.3-24.3c9.8-1.4,20,0.5,20,0.5l52.3,9.5C619.7,731.9,533.1,755.5,505.1,746.2z"/>
<path class="st9" d="M431.1,728.2c-8.1,7.6-11.4,14.5-11.4,14.5s-3.4,2.4,5.4,6.2c4.1,1.8,6.6,3.4,8.6,4.6
	C430.5,745.2,430.4,735.7,431.1,728.2z"/>
<path class="st9" d="M476.3,598.2c-0.4-0.2-2.1-2-4.8-4.3c-0.1,2.6,0.2,5.1,1.1,7c0.8,1.5,1.4,2.8,2,3.9c1.4-0.6,2.7-1,3.7-1.1
	c3.9-0.6,7-1,6.7-2.8C484.9,599.2,477.7,598.8,476.3,598.2z"/>
<path class="st9" d="M580.1,587.4c0.3,1.8,3.3,1.3,7.2,0.8c1-0.1,2.4-0.1,3.9,0c0.3-1.2,0.5-2.6,0.9-4.3c0.4-2.1,0-4.6-0.8-7
	c-1.9,2.9-3.1,5.1-3.4,5.5C586.6,583.3,579.9,585.6,580.1,587.4z"/>
<path class="st10" d="M537.7,575.4c0,0,4.8,53.2,17.9,67.1c13.2,13.9,14.5,19.7,14.4,10.3c-0.2-9.4,2.5-6.3-2.5-10
	C562.7,639,542.1,559.9,537.7,575.4z"/>
<path class="st11" d="M562.3,668.5c0,0-12.5,9.5,0.2,8.7s7.9-9.3,7.9-9.3S566.6,666.3,562.3,668.5z"/>
<path class="st12" d="M564,667.2c0,0-16.2,12.2,0.3,11.2c16.4-1,10.2-12.1,10.2-12.1S569.6,664.4,564,667.2z"/>
<path class="st12" d="M523.5,673c0,0,18.9,7.2,2.9,10.8c-16.1,3.6-13.2-8.7-13.2-8.7S517.4,671.9,523.5,673z"/>
<path class="st11" d="M524.5,673.4c0,0,14.7,5.6,2.2,8.4c-12.4,2.8-10.2-6.7-10.2-6.7S519.8,672.5,524.5,673.4z"/>
<path class="st13" d="M528.6,641c0,0-12.5,16.7,2.8,19.6c15.3,2.9,15.2-1.2,14.2-8.7C544.5,644.4,533.9,634.6,528.6,641z"/>
<path class="st14" d="M515.9,609.9c0,0-9,48.5-2.3,44.5c6.6-4,3.8-5.7,5.4-12.5C520.5,634.9,519.9,612.4,515.9,609.9z"/>
<path class="st4" d="M549,604.7c0,0,5.7,25.8,9.5,30.4C562.2,639.7,559.8,619.1,549,604.7z"/>
<path class="st10" d="M536.5,681.9c0,0,8.1,2.7,16.7-7C553.2,674.9,548.5,690.5,536.5,681.9z"/>
<path class="st10" d="M576,651.7c0,0,5.5,11.5,3.2,17.2C577,674.6,600.3,670.5,576,651.7z"/>
<path class="st15" d="M514.8,662.5c0,0-13.9,6.9-3.5,14.6C521.6,684.9,513.6,669.3,514.8,662.5z"/>
<path class="st15" d="M517.6,571.5c0,0,0.2,1.1,0.4,3c1.9,13,9,64.1,7.7,64.3c-1.5,0.2,7.1,1.3,9.8-6.8
	C538.2,624,526.2,555.7,517.6,571.5z"/>
<path class="st5" d="M672.8,500.1c0,0,16.6,46.1,17.1,66s-2.4,26.5,11.6,22.2s5-29.2-1-39.1C694.6,539.3,698.5,518,672.8,500.1z"/>
<path class="st5" d="M700,739c0.2-0.3,0.3-0.6,0.4-0.8c0.1-0.2,0.2-0.3,0.3-0.5c0.1-0.3,0.3-0.5,0.4-0.8c0.1-0.2,0.2-0.4,0.3-0.6
	c0.1-0.3,0.2-0.5,0.4-0.8c0.1-0.2,0.2-0.4,0.3-0.6c0.1-0.3,0.2-0.5,0.4-0.8c0.1-0.2,0.2-0.4,0.3-0.6c0.1-0.3,0.2-0.5,0.3-0.8
	c0.1-0.2,0.2-0.4,0.3-0.6c0.1-0.3,0.2-0.5,0.3-0.8c0.1-0.2,0.2-0.4,0.2-0.6c0.1-0.3,0.2-0.6,0.3-0.9c0.1-0.2,0.2-0.4,0.2-0.5
	c0.1-0.3,0.3-0.7,0.4-1c0.1-0.2,0.1-0.3,0.2-0.5c0.2-0.5,0.4-1,0.6-1.5c0-0.1,0-0.1,0-0.1c0.2-0.5,0.3-0.9,0.5-1.4
	c0.1-0.2,0.1-0.3,0.2-0.5c0.1-0.3,0.2-0.7,0.4-1c0.1-0.2,0.2-0.4,0.2-0.6c0.1-0.3,0.2-0.6,0.3-1c0.1-0.2,0.1-0.4,0.2-0.6
	c0.1-0.3,0.2-0.6,0.3-0.9c0.1-0.2,0.1-0.4,0.2-0.7c0.1-0.3,0.2-0.6,0.3-0.9c0.1-0.2,0.1-0.4,0.2-0.7c0.1-0.3,0.2-0.6,0.3-1
	c0.1-0.2,0.1-0.4,0.2-0.7c0.1-0.3,0.2-0.6,0.3-1c0.1-0.2,0.1-0.4,0.2-0.6c0.1-0.3,0.2-0.7,0.3-1.1c0.1-0.2,0.1-0.4,0.2-0.6
	c0.1-0.4,0.2-0.8,0.3-1.2c0-0.2,0.1-0.3,0.1-0.5c0.1-0.6,0.3-1.1,0.4-1.7c0-0.1,0-0.1,0-0.1c0.1-0.5,0.3-1.1,0.4-1.6
	c0-0.2,0.1-0.4,0.1-0.5c0.1-0.4,0.2-0.8,0.2-1.2c0-0.2,0.1-0.4,0.1-0.6c0.1-0.4,0.2-0.7,0.2-1.1c0.1-0.2,0.1-0.5,0.2-0.7
	c0.1-0.4,0.2-0.7,0.2-1.1c0.1-0.2,0.1-0.5,0.2-0.7c0.1-0.4,0.2-0.7,0.2-1.1c0-0.2,0.1-0.5,0.1-0.7c0.1-0.4,0.2-0.7,0.2-1.1
	c0-0.2,0.1-0.5,0.1-0.7c0.1-0.4,0.1-0.8,0.2-1.2c0-0.2,0.1-0.4,0.1-0.6c0-0.4,0.1-0.8,0.2-1.3c0-0.2,0.1-0.4,0.1-0.6
	c0.1-0.5,0.2-1,0.2-1.5c0-0.1,0-0.2,0.1-0.3c0.2-1.3,0.4-2.5,0.5-3.7c0-0.2,0.1-0.3,0-0.5c0.1-0.5,0.1-0.9,0.2-1.4
	c0-0.2,0.1-0.4,0.1-0.6c0-0.4,0.1-0.9,0.2-1.3c0-0.2,0-0.4,0.1-0.6c0-0.4,0.1-0.8,0.1-1.2c0-0.2,0-0.4,0.1-0.7
	c0-0.4,0.1-0.8,0.1-1.2c0-0.2,0-0.4,0.1-0.7c0-0.4,0.1-0.8,0.1-1.3c0-0.2,0-0.4,0.1-0.6c0-0.5,0.1-0.9,0.1-1.3
	c0-0.2,0.1-0.4,0.1-0.6c0-0.5,0.1-1,0.1-1.5c0-0.2,0-0.3,0.1-0.4c0.2-2,0.4-3.9,0.5-5.9c0-0.1,0-0.2,0-0.2c0-0.6,0.1-1.1,0.1-1.7
	c0-0.2,0-0.3,0-0.4c0-0.5,0.1-1,0.1-1.5c0-0.2,0-0.3,0-0.5c0-0.5,0.1-1,0.1-1.4c0-0.2,0-0.4,0-0.5c0-0.5,0.1-1,0.1-1.5
	c0-0.2,0-0.3,0-0.5c0-0.5,0.1-1,0.1-1.5c0-0.2,0-0.3,0-0.5c0-0.6,0-1.1,0.1-1.6c0-0.1,0-0.2,0-0.3c0-0.6,0.1-1.2,0.1-1.9
	c0-0.1,0-0.1,0-0.1c0.1-2.7,0.2-5.4,0.3-8.1c0-0.1,0-0.1,0-0.2c0-0.6,0-1.2,0-1.8c0-0.1,0-0.2,0-0.3c0-0.6,0-1.1,0.1-1.7
	c0-0.1,0-0.2,0-0.3c0-0.6,0-1.2,0-1.7c0-0.1,0-0.2,0-0.3c0-0.6,0-1.2,0-1.8c0-0.1,0-0.1,0-0.2c0-5.4,0-10.8,0-16l0,0
	c-0.7-1.7-1.5-3.1-2.3-4.2c0,0-9.3-16.4-15.5-11.6c-6.2,4.7-15.8,29.2-17,42.5s-11.4,81.6-13.6,103.5c-1.2,11.4-6.8,25.9-10.7,40.7
	c13.9-15.4,27.4-29.7,40.7-53c0.3-0.4,0.4-0.8,0.7-1.2C699.9,739.3,700,739.1,700,739z"/>
<path class="st16" d="M554.8,749.2c0,0-25.3,9.5-9.5,9.7c15.9,0.2,21.1,2,30.7-1.1C585.5,754.7,562.7,746.4,554.8,749.2z"/>
<path class="st17" d="M537.2,717c0,0-14.8,11.5-0.3,7.8C551.2,721,542,716.3,537.2,717z"/>
<path class="st14" d="M397.5,672.6c0,0,28.1,29.8,33.4,45.2s13.7,36.5,16.6,40.7s49.9,52.9,19.9,31.7c-29.9-21.1-44.2-29-52.2-52.6
	C407.3,714.2,397.5,672.6,397.5,672.6z"/>
<path class="st18" d="M546.6,756c0,0-72.7,12.9-35.2,33.5c37.4,20.6,40.9,28.4,59,12.9C588.6,787,628.3,750.9,546.6,756z"/>
<path class="st5" d="M594.6,668.2c0,0,21.5,36.2,21.7,43.8s11.6,14.6,14.8,7.5C634.4,712.3,594.6,668.2,594.6,668.2z"/>
<path class="st14" d="M496.8,673c0,0-10,48.4-9.4,63.7c0.7,15.3,11.8,34.5,11.8,34.5S503.1,685.2,496.8,673z"/>
<path class="st10" d="M538.2,694c0,0-2.2,16.5,4.5,15.5c6.8-1,18-3.3,18-3.3S549.8,672.3,538.2,694z"/>
<path class="st19" d="M495.7,681.6c0,0-5.9,55.5-1.7,63.4C498.3,752.8,494,702.6,495.7,681.6z"/>
<path class="st18" d="M477.6,651.9c0,0-49.7-2.9-44.7,10.2s29.3,59.7,36.3,38.7C476.1,679.8,484.9,654.7,477.6,651.9z"/>
<path class="st18" d="M652.1,629.2c0,0-49.7-2.9-44.7,10.2c5,13.2,29.3,59.7,36.3,38.7C650.7,657.1,659.4,632,652.1,629.2z"/>
<path class="st20" d="M732.3,528.5c4.5,11.5,5.5,43.8,3,58.8s5.2,79.3-5.3,76.2S714.7,648,714.7,648s-10.2-87-3.9-108
	C717.1,519.1,723.8,506.6,732.3,528.5z"/>
<path class="st20" d="M340.4,584.5c-1,12.4,7,43.6,13.6,57.3s17.2,77.5,26.4,71.6c9.2-5.9,10.4-19.2,10.4-19.2
	s-14.7-86.4-26.5-104.7C352.5,571.2,342.5,561.2,340.4,584.5z"/>
<path class="st13" d="M455.6,658.1c0,0-17.8,7.2-2.3,16.5C468.8,684,455.6,658.1,455.6,658.1z"/>
<path class="st13" d="M624,635.9c0,0-17.8,7.2-2.3,16.5C637.3,661.7,624,635.9,624,635.9z"/>
<path class="st18" d="M503.5,742.4c0,0,28.5-27.1,33.1-30.1s5.2-1.2,8.7-1.2c3.5-0.1,10.8-2.3,15.3-3.4c4.5-1,3.4-2.8,7.7-3
	c4.2-0.2,50,23.9,50,23.9s-50.3-20-51.2-19.6c-0.9,0.5-21.8,7.3-25.9,6C537.2,713.8,503.5,742.4,503.5,742.4z"/>
<path class="st21" d="M719.3,597.3c0,0,3.3-70.2,5.3-63.4s1.9,20.3,4.3,37.4c2.4,17.1,7.3,72.8,0.3,66.6
	C722.3,631.8,714.9,609.2,719.3,597.3z"/>
<path class="st21" d="M378.4,646.1c0,0-22.9-66.5-22.9-59.3s3.9,20,6.3,37.1s13.4,71.9,18.4,64.1C385.3,680,386,656.3,378.4,646.1z"
	/>
<path class="st20" d="M722.7,577.8c0,0,5.2,29.5,1.7,33.6C724.4,611.4,734.7,597.1,722.7,577.8z"/>
<path class="st20" d="M373.2,627.8c0,0,3.2,29.8,7.8,32.7C381,660.6,367.2,649.7,373.2,627.8z"/>
<path class="st22" d="M717.4,617c-1.4-4.1-2.4-7.4-2.8-9.7c-2.9-15.7-10.5-8.7-7.3,27.7c3.2,36.5-15.9,96.7-23.7,121.4
	c-7.7,24.7-13.2-6.3-20.1-18.7s-8,1.1-12.6,26.4c-4.1,22.3-40.6,63.8-49.1,73.1c5.7-2.7,11.8-6.1,17.7-10.9
	c18.7-15,51.1-35.9,79.6-85.6C715.6,712,718.3,660.6,717.4,617z"/>
<path class="st23" d="M369.2,477.2c0,0-0.8,29.9,22.7,52c23.6,22.1,13.2,18.5,23.6,6.8c10.5-11.7,43.8-16.4,77.6-35.7
	s40.8-59.4-8.7-60.8S369.6,450.8,369.2,477.2z"/>
<path class="st5" d="M665.5,400.4c1.7,13.4,4.6,43.9-1.5,61.2c-8,22.7,3.3,51.8,10.9,62.1c7.6,10.2,26.2,46.5,33.6,27
	c1.9-5.1,3.7-9.6,5.2-13.9c0-27.9-2.4-101.4-2.4-101.4C704.4,415.5,687.2,405,665.5,400.4z"/>
<path class="st5" d="M333.1,497.1c0,0,15.4,46.7,24.9,78.7c0.9,0.9,1.8,1.9,2.7,3c12.5,15.7-3.9-12.8,1-21.7s1.4-47.4-1.9-70.5
	c-1-7.3-5.7-15.9-11.6-24.2C339.4,471.7,333.8,483.2,333.1,497.1z"/>
<path class="st24" d="M422.1,598.6"/>
<path class="st25" d="M645.7,573.9c-1.9,3.5-3.8,7.3-7,9.1s-1.6,3.7,2.3,1c3.9-2.7,10.7-9.3,10.7-9.3s-4.8-9-11.1-8.3
	C640.5,566.3,647.6,570.4,645.7,573.9z"/>
<path class="st26" d="M646.5,570.8c0,0,1.5,4.3-0.2,6c-1.8,1.7,4.7-1.2,3.8-2.5C649.1,572.9,646.5,570.8,646.5,570.8z"/>
<path class="st25" d="M593.3,573.3c0,0-3.1,13.5,1.7,15C599.9,589.8,575.3,589.6,593.3,573.3z"/>
<path class="st25" d="M589,582c0,0,3.6-10.6,6.4-10.9s5.7,19.7,9.6,19C609,589.5,586.4,592,589,582z"/>
<path class="st25" d="M636.7,563.8c0,0,7.6,15.6,0.6,20.2c-7,4.6,15.8,0.7,13.8-11.6L636.7,563.8z"/>
<path class="st3" d="M668.8,810.6c-1.6-20.3-2.5-16.7-1.7-26.2c-17.7,20.8-67.1,64.8-67.1,64.8s37.8-14.7,49.1-33.2
	C659.7,813.9,665.7,812.4,668.8,810.6z"/>
<path class="st24" d="M452.2,777.6"/>
<path class="st27" d="M732.3,528.5c-7.3-18.6-13.2-12.3-18.6,2.8c-0.3-30.9-2.4-96-2.4-96c-25.6-73.7-194.1-18.4-205-13
	c-12-2.1-169.3-3.1-173.2,74.8c0,0,18.1,55,27.2,86.6c-10-14.3-18-19.8-19.8,0.8c-1,12.4,7,43.6,13.6,57.3s17.2,77.5,26.4,71.6
	c5.9-3.9,8.5-10.8,9.6-15.2c10.7,32.3,24.6,63.5,42.3,80.5c41.4,39.7,82.5,50.1,104.7,59.2c19,7.8,37.3,6.7,42.3,6.2v0.1
	c0,0,0.2,0,0.7-0.1c0.4-0.1,0.7-0.1,0.7-0.1v-0.1c4.9-0.9,22.8-5,38.8-17.8c18.7-15,51.1-35.9,79.6-85.6
	c12.1-21.1,16.8-54.5,18.1-88.1c2.4,3.9,6.7,9.1,12.9,10.9c10.4,3.1,2.8-61.2,5.3-76.2C737.8,572.3,736.8,540.1,732.3,528.5z"/>
<path class="st28" d="M371.1,598.9c0,0-18.2-33.4-15.4-47.3l2.3-3c0,0-0.9-2,0.2-6c1.1-3.9,3-5.3,0.1-6.5s2.3-6.3,2.3-6.3l-4.1-2.1
	c0,0-1.4-2-1.2-4.1c0.3-2.2,0.6-7.6,0.6-7.6s-3.8,3.8-0.1-4.8c3.6-8.6,4.4-10.9,4.4-10.9s-15,0.5,1.2-14.1
	c16.2-14.7,10.3-48.1,54.3-48.6s84.6-6.2,84.6-6.2s72.2-36.7,112.6-17.7c40.3,19,69.6,42.8,71.7,50l-10.5-1.7l11.9,8l-10.3-0.2
	l13.6,5.1l-6.8,1.5l4.6,2.1v3.8l1.6,3.6l5.7,2.4l1.7,4.1l7.6,19.3l5.7,17.5l1.2,11.1c0,0,4.8-14.6,11.7-42
	c6.8-27.3,20.9-81.3-21.9-121.3c0,0-140.6-188.3-338.8-12.2c-42.3,18.8-53.7,103.8-37.9,148.6c15.8,44.8,9.4,39,12.8,47.7
	s7.2,12.4,7.2,12.4S359.1,574.8,371.1,598.9z"/>
<path class="st29" d="M518.3,398.4c-92.3,26.1-108,40.5-138.1,27.8c-30.1-12.6-40.8,13.9-31.5,22.3c6.3,5.7,8.8,10.8,25.1,16.7
	c6.1-13.7,13.9-27.4,42-27.7c44.1-0.4,84.6-6.2,84.6-6.2s72.2-36.7,112.6-17.7s69.6,42.8,71.7,50l-10.5-1.7l11.9,8l-10.3-0.2
	l13.1,4.9c13.6-3.9,21.3-8.4,21.3-8.4s-5.2-19.4-28.7-48.4C658,388.9,610.6,372.3,518.3,398.4z"/>
<path class="st30" d="M336.6,413.9c0,0-7.9,46.3-2.7,60.1s0.1,46,5.2,42c5.1-3.9,0-11.3,4.2-27.2c4.2-15.9-6.1-14.5-5.7-33.9
	C338.1,435.5,336.6,413.9,336.6,413.9z"/>
<path class="st30" d="M394.4,417.8c0,0,22.2,2.5,48.2,10c26.1,7.6,37,5.2,45.1,4.9s-28.6-2.4-41.3-7
	C433.6,421.1,394.4,417.8,394.4,417.8z"/>
<path class="st30" d="M393.8,426.8c0,0,22.3,0.5,48.9,5.8c26.7,5.2,37.4,2,45.3,0.9s-28.7,0.1-41.8-3.4
	C433.2,426.6,393.8,426.8,393.8,426.8z"/>
<path class="st30" d="M422.2,414.6c0,0,17.4,3,37.5,10c20.1,6.9,29,5.9,35.4,6.1s-22.5-3.4-32.3-7.4S422.2,414.6,422.2,414.6z"/>
<path class="st30" d="M433.9,404c0,0,16.7,5.9,35.4,16.1s27.6,10.6,33.9,11.9s-21.6-7-30.6-12.7C463.6,413.6,433.9,404,433.9,404z"
	/>
<path class="st31" d="M493.4,571.3c0,0-45.5-22.8-78.6-3c-13.3,8-38.4,20.6-27.7,29.7s8.7,17.4,19.2,10.1
	c10.5-7.3,24.2-32.8,54.1-22.4C490.4,596.2,511,588.3,493.4,571.3z"/>
<path class="st32" d="M413.1,608.2c0,0-2.5,1.3,3.6,3.2c6,1.8,6.7,3.4,11,2.7c4.4-0.6,19.1,2.6,38.7-5.9c0,0,8.8-3.9,12.7-4.5
	c3.9-0.6,7-1,6.8-2.3s-7.3-1.3-8.7-1.7c-1.4-0.5-16.2-14-36.3-8.4C420.8,596.8,413.1,608.2,413.1,608.2z"/>
<path class="st33" d="M412.8,606.4c0,0-2.4,1.7,3.7,4.4c6.2,2.7,6.9,4.8,11.2,4.2c4.4-0.6,19.3,4.4,38.7-6c0,0,8.7-4.8,12.5-5.4
	c3.9-0.6,7-1,6.7-2.8s-7.4-2.1-8.8-2.7c-1.4-0.7-17-19.4-37-12.9C420,591.6,412.8,606.4,412.8,606.4z"/>
<path class="st34" d="M480.3,603.4c3.3-0.5,5.8-1,5.6-2.6c-0.3-1.8-7.4-2.1-8.8-2.7C476.9,598.1,481.3,601.5,480.3,603.4z"/>
<g>
	<path d="M445.4,589.9c14.9-2.1,26.4,6.1,30.1,8.9c0.9,0.6,1.2,0.9,1.4,0.9c0.5,0.2,1.6,0.3,3,0.4c2,0.2,5.4,0.5,5.5,1.2
		c0.2,1.1-2.9,1.5-6.5,2c-3.9,0.6-12.5,4.4-12.8,4.6c-6,2.6-12.2,4.4-18.3,5.3c-6.6,0.9-12.1,0.7-15.7,0.6c-2-0.1-3.5-0.2-4.6,0
		c-2.7,0.4-3.9-0.1-6.1-1.1c-1.2-0.5-2.6-1.2-4.8-1.8c-3.3-1-3.8-1.8-3.9-2.2c0-0.3,0.3-0.6,0.4-0.6l0,0l0,0c0,0,1.9-3,6.3-6.5
		c4-3.3,11-7.8,21.2-10.7C442.4,590.5,443.9,590.1,445.4,589.9 M445.4,589.7c-1.5,0.2-3,0.6-4.6,1C420.7,596.3,413,608,413,608
		s-2.5,1.4,3.6,3.3c6.1,1.9,6.7,3.5,11.1,2.9c2.8-0.4,10.1,0.9,20.3-0.6c5.4-0.8,11.6-2.3,18.4-5.3c0,0,8.8-4,12.7-4.6
		c3.9-0.6,7-1,6.8-2.3s-7.3-1.4-8.7-1.8C475.8,599,463.1,587.1,445.4,589.7L445.4,589.7z"/>
</g>
<path class="st35" d="M492,555.7c0,0-12-9.4-19-11.5"/>
<path class="st35" d="M488.5,556.2c0,0-20-15.4-25.7-15"/>
<path class="st35" d="M483.6,556.5c0,0-21.3-15.2-28.3-14.6"/>
<path class="st35" d="M475.7,556.7c0,0-19.4-14.6-28.1-13.3"/>
<path class="st35" d="M467.5,555.7c0,0-20.6-10.4-25.5-10.6"/>
<path class="st35" d="M451,551.8c-0.9,0.1-9.8-6.1-18.1-5.4"/>
<path class="st35" d="M436.5,553c0,0-12.7-5.3-18.1-4.9"/>
<path class="st35" d="M429.8,556.2c0,0-14.5-5.4-19.4-4.8"/>
<path class="st35" d="M419.6,559c0,0-9.5-7.1-13.2-5.2"/>
<path class="st35" d="M414.1,561.1c0,0-6.4-4.4-10.3-3.8"/>
<path class="st35" d="M407,561.2c0,0-5.6-1.9-9.8-0.4"/>
<path class="st35" d="M400.9,564.7c0,0-7.2-0.8-9.4,0"/>
<path class="st35" d="M493,553.4c0,0-15.4-11.6-17.6-11.2"/>
<path class="st35" d="M493.1,551.1c0,0-9.8-9.2-13.8-9.6"/>
<path class="st35" d="M494.6,548.7c0,0-8.3-8.2-11.7-7.7"/>
<path class="st35" d="M478,557.3"/>
<path class="st35" d="M478.8,556.8c0,0-18.5-14.7-24.3-14.3"/>
<path class="st35" d="M469.8,555.3c0,0-18.2-12.1-24.3-11.6"/>
<path class="st35" d="M455,552.1c0,0-15.4-8.4-18-7.7"/>
<path class="st35" d="M447.6,552.7c0,0-12.6-4.4-20-6.1"/>
<path class="st35" d="M441.9,553.5c0,0-17.1-7.8-18.8-7.1"/>
<path class="st35" d="M433.6,554.7c0,0-12.7-5.3-17.7-5.5"/>
<path class="st35" d="M421.9,556.4c0,0-8.6-4.5-13.9-3.8"/>
<path class="st35" d="M415.1,558.8c0,0-5.9-4.1-9.4-3.6"/>
<path class="st35" d="M408.3,560.6c0,0-5.6-1.9-7.9-2.5"/>
<line class="st35" x1="402.8" y1="562.7" x2="394.2" y2="561.8"/>
<path class="st35" d="M386.2,566.6c3.3-1.8,7.5-0.2,7.5-0.2"/>
<path class="st36" d="M494.4,552.5c0,0,8.9,3.2-37.8-0.4c0,0-33.7-2.7-70.2,18.5c0,0,10.9-14,29.6-20.2c18.7-6.3,46.2-9.7,54.3-8.6
	C478.3,542.8,491.5,535.1,494.4,552.5z"/>
<path class="st31" d="M394.9,610.9c0,0-0.7,4.6,6.7,0.4c7.4-4.2,12.7-29,31-31.6s44.8-3.8,57.1,4.7c12.3,8.5,10.9-10.9,2-13.6
	c-8.8-2.7-60.3-14.5-76.1,11.4C399.8,608,394.9,610.9,394.9,610.9z"/>
<path class="st37" d="M468.7,611.6c-13.1,7.9-36.1,5.2-41.5,5.2c-5.3,0.1-13.8-6.5-15.5-6.3c-1.8,0.3-1.7,0.7-2.2-1.7
	c-0.5-2.3,19-17.5,19-17.5s21.6-16.7,48.8,5.8"/>
<path class="st15" d="M408.7,602.1c-0.2,1.3,2.4,5,7.1,0.3s18.9-21.2,26.6-21.9c7.7-0.6,26,8.6,28.1,3.4c2.1-5.2-6-13.3-23.2-9
	C430.2,579.2,410.7,587.3,408.7,602.1z"/>
<path class="st38" d="M402.3,607.4c0,0-14.1,7.3-9.4,8.5c4.6,1.1,12.7-1.4,14.1-0.7s31.8,14.1,57.3,3.4l13.5-5.1
	c0,0-5.4,12.3-20.5,15.4c-15.1,3-22.1,7.1-16.4,6.8c5.7-0.4,68.8-11.9,59-44c-4.2-13.6-8.2-13.9-12-6.3c-3.8,7.7,0.1,10.2-4.9,15.8
	s-26.1,25.5-67.1,12.7C416.1,613.9,412.1,604.3,402.3,607.4z"/>
<path class="st35" d="M406.6,603.3c0.6,3.9,6.6,3.4,6.6,3.4"/>
<path class="st35" d="M413.7,604.9c0,0-5.1,1.9-6.5-1.9"/>
<path class="st35" d="M414.7,603.3c0,0-5.4,2.1-6.4-1.8"/>
<path class="st35" d="M415.2,602.5c0,0-3.5,0.8-4.8-2.1"/>
<path class="st35" d="M415.8,601.7c0,0-5-0.9-6-3.4"/>
<path class="st35" d="M417,600.4c0,0-6.5-2.8-6.8-4.6"/>
<path class="st35" d="M418,599.3c0,0-6.5-3.2-6.8-5.4"/>
<path class="st35" d="M419.1,598.4c0,0-4.8-4-5.9-5.6"/>
<path class="st35" d="M421.2,597.6c0,0-5.6-3.2-5.9-5.4"/>
<path class="st35" d="M423.1,596.7c0,0-5.3-3.1-5.7-6.4"/>
<path class="st35" d="M423.8,595.8c0,0-5.3-2.4-5.2-5.5"/>
<path class="st35" d="M425.1,596c0,0-6.2-6-6-7.4"/>
<path class="st35" d="M426.6,593.8c0,0-5.6-4.5-5.9-6.7"/>
<path class="st35" d="M427.6,592.9c0,0-4.1-2.8-4.5-5.9"/>
<path class="st35" d="M428.7,592c0,0-4.6-3.3-4.8-6"/>
<path class="st35" d="M430.2,591.3c0,0-5.7-4.1-6.1-6.1"/>
<path class="st35" d="M431.4,591c0,0-6-4.6-4.9-6.5"/>
<path class="st35" d="M464.3,589.4c0,0,3.8-1.6,3.7-5.1"/>
<path class="st35" d="M466.8,590.5c0,0,1.7-0.7,2.7-3"/>
<path class="st35" d="M469.1,591.6c0,0,1.2-1.2,1.9-2.2"/>
<path class="st35" d="M471.5,592.9c0,0,1.8-0.3,1.9-2.1"/>
<path class="st35" d="M468,590.2c0,0,1.7-0.7,2-1.6"/>
<path class="st35" d="M432.2,590.7c0,0-3.5-2.3-4.4-5.4"/>
<path class="st35" d="M433.3,590.5c0,0-3.7-3.9-3.1-6.2"/>
<path class="st35" d="M434.4,589.5c0,0-3.7-3.9-2.7-6.3"/>
<path class="st35" d="M436.1,588.7c0,0-4.6-4.3-3.6-6.6"/>
<path class="st35" d="M436.9,588.6c-0.1-0.5-3-5.4-2.4-7.2"/>
<path class="st35" d="M439.5,588.5c0,0-2.9-4.5-2.4-7"/>
<path class="st35" d="M441.3,586.8c0,0-2.7-3.2-1.7-6"/>
<path class="st35" d="M442.2,586.5c0,0-2.5-5-1.8-6.4"/>
<path class="st35" d="M443.5,586.2c0,0-1.4-3.8-0.9-6.1"/>
<path class="st35" d="M444.7,586.7c0,0-1.1-4.3-0.4-6.2"/>
<path class="st35" d="M445.9,585.7c0,0,0-5.8-0.1-7.1"/>
<path class="st35" d="M447.3,585.8c0,0,0.3-4-0.1-7.1"/>
<path class="st35" d="M448.6,585.9c0,0,1.2-4.2,0.4-6.7"/>
<path class="st35" d="M450.1,585.8c0,0,1.5-2,1.4-5.5"/>
<path class="st35" d="M452,586.1c0,0,3-2.7,2.7-5.3"/>
<path class="st35" d="M453.9,586.1c0,0,2.4-2.6,2.1-4.4"/>
<path class="st35" d="M455.1,586.7c0,0,3.5-3.2,2.7-6.2"/>
<path class="st35" d="M456.9,586.9c0,0,3.1-3.6,3.2-5.4"/>
<path class="st35" d="M458.8,587.1c0,0,2.4-2.1,3-4.4"/>
<path class="st35" d="M461.5,588.1c0,0,2.3-2.5,2.5-4.4"/>
<path class="st35" d="M462.6,588.6c0,0,3.3-2.3,3.4-4.1"/>
<path class="st35" d="M450.9,585.9c0,0,3.8-4.5,3.1-6.2"/>
<path class="st35" d="M465.6,590.1c0,0,2.9-1.7,3.1-3.6"/>
<path class="st35" d="M470.6,592.1c0,0,1.4,0.3,1.9-2.1"/>
<path class="st35" d="M472.4,593.9c0,0,2.4,0.3,2.6-1.5"/>
<path class="st35" d="M475.1,595.9c0,0,3.1,0,3.3-2.3"/>
<path class="st35" d="M474.1,594.8c0,0,2.7,0.5,3-0.9"/>
<path class="st35" d="M476.6,597.1c0,0,3.1-0.4,3-0.9"/>
<path class="st35" d="M425.1,594.6c0,0-5-4.2-5.1-6.2"/>
<path class="st35" d="M442.8,586.4c0,0-1.1-4.8-0.9-6.5"/>
<path class="st35" d="M440.1,587.2c0,0-1.3-2.9-1.3-6.1"/>
<path class="st35" d="M437.9,588c0,0-2.4-4.6-1.9-6.9"/>
<path class="st35" d="M449.3,585.9c0,0,1.2-4.2,0.9-5.9"/>
<path class="st9" d="M406.5,617.7c0,0,2.1,18.2,27.9,14s37.9-6.3,40.7-11.4c2.8-5-28.6,5.5-40.8,3.5
	C422,622,406.1,608.5,406.5,617.7z"/>
<path class="st39" d="M482.6,572.8c-15.8-4.9-24.1-7.2-39.6-3.2c-15.4,4-14.4-1.1-22.2,6.3c-7.9,7.4-21.6,29.3-21.6,29.3
	s2.1,2.1,4.8-2c0.8-1.2,2.6-4.1,5-7.5c5.1-8.6,11.5-19.4,23.2-21.1c18.3-2.6,44.8-3.8,57.1,4.7c0.2,0.1,0.4,0.3,0.6,0.4
	c1.9,0.6,3.4,1,3.4,1S498.5,577.7,482.6,572.8z"/>
<g class="st40">
	<path class="st41" d="M419.4,601.6c0,0,0.5-0.6,1.5-1.5C420.1,600.6,419.6,601.1,419.4,601.6z"/>
	<path class="st41" d="M441,588.7c15.1-4.8,27.7,4.7,33.6,9.9c0.3-0.1,0.6-0.2,1-0.3c2-0.4,13.8-0.9-8.7-12.4
		c-19.3-9.7-40.2,8.6-46,14.2c0.5-0.3,1.1-0.6,1.8-0.9C426.9,595.4,432.9,591.4,441,588.7z"/>
</g>
<path class="st31" d="M394.7,610.7c0,0-4.6,2.7-4.8,3.2c-0.2,0.6-0.3,4.1,4.7,2.8s1.5,4.1,3.5,2.7
	C399.8,618,397.8,608.6,394.7,610.7z"/>
<path class="st31" d="M379.9,616c0,0,11.3,1.1,16.8-3.7c5.6-4.8,1.1-3.9,1.1-3.9S390.3,617.1,379.9,616z"/>
<path class="st31" d="M399,611.6c0,0-5.7,4.2-5,9C394.7,625.4,399.1,614.4,399,611.6z"/>
<path class="st31" d="M396.1,609.6c0,0-10.6-6.9-5.5-11.7c5.1-4.7,4.4-9.5,8.1-11.8s23.8-17.2,36.2-17.6
	c12.4-0.4,53.1,10.6,57.6,14.4c4.5,3.8,21.2,11.7-4.3,4.6s-48-12.9-54.6-9.2C427,582,398.7,616.8,396.1,609.6z"/>
<path class="st15" d="M496.1,589.1c0,0-8-3.3-6.7,2.8s5.8,6.3,6.3,9.7c0.5,3.5-3.8,7.7-3.8,7.7s-0.4,3.2,3.2,0.4
	C498.6,607,501.3,591.1,496.1,589.1z"/>
<path class="st31" d="M434.6,623.9c-10.2-1.6-23-11.3-26.7-9c1.1,1.4,2.9,3.2,5.4,4.4c4.3,2-2.2,3.4,9.7,5.7s37.4,0.9,45.7-3.9
	c1.4-0.8,2.6-1.5,3.5-2C464.1,619.7,443.8,625.4,434.6,623.9z"/>
<path class="st35" d="M416,610.5c0,0-0.4,2.6-0.9,2.7"/>
<path class="st35" d="M417.6,610.8c0,0,0.3,2.2-0.5,2.7"/>
<path class="st35" d="M419.8,612.6c0,0,0.2,1.9-0.3,1.9"/>
<path class="st35" d="M421.6,613.6c0,0,0.4,1.6-0.1,1.7"/>
<line class="st35" x1="423.2" y1="614.3" x2="423.3" y2="616.2"/>
<line class="st35" x1="425.4" y1="615.5" x2="425.3" y2="617.3"/>
<line class="st35" x1="427.7" y1="615.6" x2="427.2" y2="618.3"/>
<line class="st35" x1="430.4" y1="615.6" x2="429.9" y2="618.8"/>
<line class="st35" x1="432.2" y1="615.8" x2="432" y2="618.1"/>
<line class="st35" x1="433.4" y1="615.7" x2="433.4" y2="618.3"/>
<line class="st35" x1="435.8" y1="616.2" x2="435.2" y2="618.9"/>
<line class="st35" x1="437.3" y1="616.2" x2="437.3" y2="618.9"/>
<line class="st35" x1="429.1" y1="615.8" x2="428.5" y2="618.6"/>
<line class="st35" x1="426.4" y1="615.8" x2="426.2" y2="617.6"/>
<line class="st35" x1="424.2" y1="615" x2="424" y2="616.1"/>
<line class="st35" x1="438.5" y1="616.7" x2="438.9" y2="619.3"/>
<line class="st35" x1="440.3" y1="616.9" x2="440.8" y2="619.9"/>
<line class="st35" x1="443.8" y1="616.4" x2="444.7" y2="619.4"/>
<line class="st35" x1="442" y1="616.6" x2="442.3" y2="618.8"/>
<line class="st35" x1="446.9" y1="616.4" x2="447.3" y2="619"/>
<line class="st35" x1="449.6" y1="616.4" x2="450" y2="617.5"/>
<line class="st35" x1="448.1" y1="615.8" x2="449" y2="618.8"/>
<line class="st35" x1="451.7" y1="616.1" x2="452" y2="618.3"/>
<line class="st35" x1="453.5" y1="615.9" x2="454.3" y2="618"/>
<line class="st35" x1="455.6" y1="615.2" x2="456.3" y2="616.9"/>
<line class="st35" x1="457.3" y1="614.9" x2="457.7" y2="617.1"/>
<line class="st35" x1="459.1" y1="614.7" x2="459.3" y2="616.4"/>
<line class="st35" x1="460.3" y1="613.6" x2="461" y2="615.7"/>
<path class="st42" d="M488.2,603.8c0,0-1.5,2,0.6,1.2C490.9,604.3,488.6,603.3,488.2,603.8z"/>
<g>
	<g>
		<defs>
			<path id="SVGID_1_" d="M413.1,608.2c0,0-2.5,1.3,3.6,3.2c6,1.8,6.7,3.4,11,2.7c4.4-0.6,19.1,2.6,38.7-5.9c0,0,8.8-3.9,12.7-4.5
				c3.9-0.6,7-1,6.8-2.3s-7.3-1.3-8.7-1.7c-1.4-0.5-16.2-14-36.3-8.4C420.8,596.8,413.1,608.2,413.1,608.2z"/>
		</defs>
		<clipPath id="SVGID_2_">
			<use xlink:href="#SVGID_1_"  style="overflow:visible;"/>
		</clipPath>
		<g class="st43">
			<circle class="st44" cx="448.3" cy="599.7" r="17.8"/>
			<path class="st45" d="M445.7,582.1c-9.8,1.4-16.5,10.4-15.1,20.2s10.4,16.5,20.2,15.1c9.8-1.4,16.5-10.4,15.1-20.2
				C464.5,587.5,455.5,580.7,445.7,582.1z M461.6,605.8c-1.8,2-2.1,2.8-3,3.2c-1,0.4-2.8,2.1-6.4,3.7c-3.6,1.6-3.1,2.9-5.9,2.6
				c-2.8-0.3-5.1-1.6-6.4-3.1c-1.2-1.4-5-5.8-5.4-8.8c-0.4-3.1-1.4-2.2-1-4.2c0.4-2.1-0.5-1.2,0.6-3.1c1.1-1.9,1.3-3.3,2.4-4.9
				s1.2-4,2.5-4.2c0,0,5.2-2.8,9.1-2.4c3.9,0.5,6.1,0.9,8.1,2.7s2.9,1,4,3.6s3.4,4.7,2.8,7.3C462.3,600.8,463.4,603.9,461.6,605.8z"
				/>
			<path class="st46" d="M459.2,598.5c0,0,6.4-0.6,4.1-0.1C461,598.9,456.8,599.2,459.2,598.5z"/>
			<path class="st46" d="M433.2,602.2c0,0,6.4-0.6,4.1-0.1C435,602.6,430.9,602.9,433.2,602.2z"/>
			<path class="st46" d="M459.3,599.5c0,0,6.4-0.1,4.1,0.3C461.1,600.1,456.9,600,459.3,599.5z"/>
			<path class="st46" d="M433.1,600.9c0,0,6.4-0.1,4.1,0.3C434.8,601.4,430.7,601.4,433.1,600.9z"/>
			<path class="st46" d="M459.3,600.5c0,0,6.4,0.6,4.1,0.6S456.9,600.7,459.3,600.5z"/>
			<path class="st46" d="M433.1,599.5c0,0,6.4,0.6,4.1,0.6C434.8,600.3,430.7,599.8,433.1,599.5z"/>
			<path class="st46" d="M459.3,601.5c0,0,6.4,1.1,4,1S456.8,601.5,459.3,601.5z"/>
			<path class="st46" d="M433.2,598.2c0,0,6.4,1.1,4,1C434.9,599.1,430.8,598.2,433.2,598.2z"/>
			<path class="st46" d="M459.1,602.5c0,0,6.2,1.7,3.9,1.3C460.6,603.5,456.7,602.3,459.1,602.5z"/>
			<path class="st46" d="M433.5,596.9c0,0,6.2,1.7,3.9,1.3C435,597.9,431,596.7,433.5,596.9z"/>
			<path class="st46" d="M458.9,603.5c0,0,6,2.2,3.7,1.7C460.3,604.7,456.5,603.1,458.9,603.5z"/>
			<path class="st46" d="M433.8,595.5c0,0,6,2.2,3.7,1.7C435.3,596.8,431.4,595.2,433.8,595.5z"/>
			<path class="st46" d="M458.6,604.4c0,0,5.8,2.8,3.6,2C459.9,605.7,456.2,603.8,458.6,604.4z"/>
			<path class="st46" d="M434.3,594.3c0,0,5.8,2.8,3.6,2C435.6,595.6,431.9,593.7,434.3,594.3z"/>
			<path class="st46" d="M458.2,605.4c0,0,5.6,3.2,3.4,2.3C459.4,606.7,455.9,604.5,458.2,605.4z"/>
			<path class="st46" d="M435,593.1c0,0,5.6,3.2,3.4,2.3C436.1,594.5,432.7,592.3,435,593.1z"/>
			<path class="st46" d="M457.7,606.2c0,0,5.2,3.8,3.1,2.6C458.8,607.7,455.4,605.2,457.7,606.2z"/>
			<path class="st46" d="M435.6,592c0,0,5.2,3.8,3.1,2.6C436.7,593.5,433.4,590.9,435.6,592z"/>
			<path class="st46" d="M457.1,607.1c0,0,4.9,4.2,2.9,2.9S455,605.9,457.1,607.1z"/>
			<path class="st46" d="M436.4,590.9c0,0,4.9,4.2,2.9,2.9C437.4,592.5,434.3,589.6,436.4,590.9z"/>
			<path class="st46" d="M456.5,607.8c0,0,4.5,4.6,2.7,3.2C457.2,609.5,454.5,606.4,456.5,607.8z"/>
			<path class="st46" d="M437.4,589.9c0,0,4.5,4.6,2.7,3.2C438.1,591.6,435.3,588.4,437.4,589.9z"/>
			<path class="st46" d="M455.8,608.6c0,0,4.1,5,2.3,3.4S453.9,606.9,455.8,608.6z"/>
			<path class="st46" d="M438.3,588.9c0,0,4.1,5,2.3,3.4C439,590.7,436.5,587.4,438.3,588.9z"/>
			<path class="st46" d="M455,609.2c0,0,3.6,5.3,2.1,3.6C455.5,611,453.3,607.5,455,609.2z"/>
			<path class="st46" d="M439.4,588.1c0,0,3.6,5.3,2.1,3.6C439.9,589.9,437.6,586.4,439.4,588.1z"/>
			<path class="st46" d="M454.2,609.8c0,0,3.1,5.7,1.7,3.7C454.6,611.6,452.7,607.9,454.2,609.8z"/>
			<path class="st46" d="M440.6,587.4c0,0,3.1,5.7,1.7,3.7C440.8,589.2,439,585.5,440.6,587.4z"/>
			<path class="st46" d="M453.3,610.3c0,0,2.6,5.9,1.4,3.9C453.5,612.1,451.9,608.3,453.3,610.3z"/>
			<path class="st46" d="M441.7,586.7c0,0,2.6,5.9,1.4,3.9C441.9,588.6,440.3,584.7,441.7,586.7z"/>
			<path class="st46" d="M452.4,610.7c0,0,2.1,6.1,1,3.9C452.4,612.5,451.3,608.6,452.4,610.7z"/>
			<path class="st46" d="M442.9,586.2c0,0,2.1,6.1,1,3.9C442.9,588.1,441.8,584.1,442.9,586.2z"/>
			<path class="st46" d="M451.5,611c0,0,1.5,6.3,0.6,4.1C451.3,612.9,450.5,608.8,451.5,611z"/>
			<path class="st46" d="M444.3,585.8c0,0,1.5,6.3,0.6,4.1C444,587.7,443.2,583.6,444.3,585.8z"/>
			<path class="st46" d="M450.5,611.3c0,0,0.9,6.4,0.3,4.1C450.2,613.1,449.7,609,450.5,611.3z"/>
			<path class="st46" d="M445.6,585.5c0,0,0.9,6.4,0.3,4.1C445.2,587.3,444.7,583.2,445.6,585.5z"/>
			<path class="st46" d="M449.5,611.5c0,0,0.4,6.4-0.1,4.1C449,613.3,449,609.1,449.5,611.5z"/>
			<path class="st46" d="M446.9,585.4c0,0,0.4,6.4-0.1,4.1C446.4,587.1,446.3,583,446.9,585.4z"/>
			<path class="st46" d="M448.6,611.5c0,0-0.3,6.4-0.5,4.1C447.8,613.3,448.2,609.2,448.6,611.5z"/>
			<path class="st46" d="M448.2,585.3c0,0-0.3,6.4-0.5,4.1C447.6,587,447.9,582.9,448.2,585.3z"/>
			<path class="st46" d="M447.5,611.6c0,0-0.8,6.4-0.8,4C446.8,613.2,447.4,609.1,447.5,611.6z"/>
			<path class="st46" d="M449.6,585.4c0,0-0.8,6.4-0.8,4C448.7,587.1,449.4,583,449.6,585.4z"/>
			<path class="st46" d="M446.6,611.4c0,0-1.3,6.3-1.2,4C445.6,613.1,446.6,609,446.6,611.4z"/>
			<path class="st46" d="M450.9,585.6c0,0-1.3,6.3-1.2,4C449.9,587.2,450.9,583.1,450.9,585.6z"/>
			<path class="st46" d="M445.6,611.3c0,0-1.9,6.1-1.6,3.8C444.4,612.8,445.8,608.8,445.6,611.3z"/>
			<path class="st46" d="M452.3,585.8c0,0-1.9,6.1-1.6,3.8C451.1,587.4,452.5,583.5,452.3,585.8z"/>
			<path class="st46" d="M444.6,611c0,0-2.5,5.9-1.8,3.7C443.4,612.4,445.1,608.6,444.6,611z"/>
			<path class="st46" d="M453.6,586.3c0,0-2.5,5.9-1.8,3.7C452.3,587.7,454,583.9,453.6,586.3z"/>
			<path class="st46" d="M444.6,611c0,0-2.5,5.9-1.8,3.7C443.4,612.4,445.1,608.6,444.6,611z"/>
			<path class="st46" d="M453.6,586.3c0,0-2.5,5.9-1.8,3.7C452.3,587.7,454,583.9,453.6,586.3z"/>
			<path class="st46" d="M443.7,610.6c0,0-3,5.7-2.2,3.5C442.3,611.9,444.4,608.3,443.7,610.6z"/>
			<path class="st46" d="M454.8,586.8c0,0-3,5.7-2.2,3.5C453.4,588.1,455.4,584.5,454.8,586.8z"/>
			<path class="st46" d="M442.8,610.2c0,0-3.5,5.4-2.4,3.3C441.3,611.3,443.7,607.9,442.8,610.2z"/>
			<path class="st46" d="M455.9,587.5c0,0-3.5,5.4-2.4,3.3C454.4,588.6,456.8,585.2,455.9,587.5z"/>
			<path class="st46" d="M441.9,609.6c0,0-4,5.1-2.7,3.1C440.4,610.7,443,607.5,441.9,609.6z"/>
			<path class="st46" d="M457.1,588.2c0,0-4,5.1-2.7,3.1C455.5,589.2,458.1,586.1,457.1,588.2z"/>
			<path class="st46" d="M441.1,609.1c0,0-4.4,4.7-3,2.8C439.4,609.9,442.4,607,441.1,609.1z"/>
			<path class="st46" d="M458.1,589.1c0,0-4.4,4.7-3,2.8C456.5,590,459.4,587,458.1,589.1z"/>
			<path class="st46" d="M440.3,608.4c0,0-4.8,4.3-3.3,2.5C438.6,609.1,441.9,606.5,440.3,608.4z"/>
			<path class="st46" d="M459.1,590c0,0-4.8,4.3-3.3,2.5S460.6,588.1,459.1,590z"/>
			<path class="st46" d="M439.7,607.7c0,0-5.2,3.8-3.5,2.2C437.9,608.2,441.3,605.9,439.7,607.7z"/>
			<path class="st46" d="M460,591c0,0-5.2,3.8-3.5,2.2C458.2,591.6,461.6,589.2,460,591z"/>
			<path class="st46" d="M439,606.9c0,0-5.5,3.3-3.6,1.9C437.2,607.3,440.9,605.2,439,606.9z"/>
			<path class="st46" d="M460.7,592.1c0,0-5.5,3.3-3.6,1.9C458.9,592.5,462.5,590.5,460.7,592.1z"/>
			<path class="st46" d="M438.5,606c0,0-5.8,2.9-3.8,1.6C436.7,606.3,440.5,604.6,438.5,606z"/>
			<path class="st46" d="M461.4,593.3c0,0-5.8,2.9-3.8,1.6C459.6,593.5,463.4,591.8,461.4,593.3z"/>
			<path class="st46" d="M438,605.1c0,0-6,2.3-3.9,1.2C436.1,605.2,440.1,603.9,438,605.1z"/>
			<path class="st46" d="M462,594.5c0,0-6,2.3-3.9,1.2C460.2,594.5,464.1,593.2,462,594.5z"/>
			<path class="st46" d="M437.6,604.3c0,0-6.2,1.8-4,0.8C435.7,604.2,439.8,603.1,437.6,604.3z"/>
			<path class="st46" d="M462.5,595.8c0,0-6.2,1.8-4,0.8C460.6,595.7,464.6,594.7,462.5,595.8z"/>
			<path class="st46" d="M437.4,603.3c0,0-6.3,1.2-4.1,0.5C435.5,603,439.6,602.4,437.4,603.3z"/>
			<path class="st46" d="M462.9,597.1c0,0-6.3,1.2-4.1,0.5C461,596.8,465.1,596.1,462.9,597.1z"/>
			<g class="st47">
				<path class="st48" d="M442.3,599.4c0,0-1-0.3-1.9-0.2c-1,0-0.4,0.3-1.2,0.1s-0.9-0.5-1.7-0.8s0.2-0.4-1.3-0.4
					c-1.6,0-2.3-0.3-2.3-0.3l-0.8-0.1c0,0,1.7,0.5,2.4,0.7c0.8,0.2,1.6,0.6,1.6,0.6s-1,0.3-1.6-0.1c-0.6-0.3-2-0.7-1.8-0.5
					c0.6,0.4,0.2,0.9,1.3,1s1.6,0.3,2.2,0.5c0.5,0.1,1.2,0.4,0.3,0.4c-1-0.1-2-0.2-2.6-0.6c-0.7-0.3-1.6-0.8-1.7-0.8
					s1.1,1.5,2.1,1.6c1.1,0,2,0.5,2,0.5s0,0.9-1.4,0.3c-1.5-0.6-2.3-0.7-2.3-0.7s-0.2,0,1.1,0.6c1.3,0.6,1.6,0.6,2,0.8
					c0.4,0.1,0.4,0.2,0.8,0.2s0.3-0.8,0.6-0.9c0.3,0,1.6-0.4,1.9-0.6c0.3-0.2,0.4-0.2,1-0.3c0.7-0.1,1.6,0,1.6,0
					S442.2,599.6,442.3,599.4z"/>
				<path class="st48" d="M452.2,599.5c0,0,0.9,0.4,1.9,0.5c0.9,0.1,0.4-0.2,1.1,0.1s0.9,0.6,1.5,1.1c0.7,0.4-0.3,0.4,1.3,0.6
					c1.6,0.2,2.2,0.7,2.2,0.7l0.7,0.2c0,0-1.5-0.8-2.3-1.1c-0.7-0.3-1.4-0.8-1.4-0.8s1.1-0.1,1.5,0.3c0.5,0.4,1.9,0.9,1.6,0.7
					c-0.5-0.5-0.1-1-1.1-1.1c-1-0.2-1.6-0.5-2-0.7s-1.2-0.6-0.2-0.4c1,0.2,2,0.5,2.6,0.9s1.4,1,1.5,1.1c0.1,0-0.8-1.7-1.9-1.9
					s-1.8-0.7-1.8-0.7s0.1-0.8,1.5-0.1c1.3,0.7,2.2,1,2.2,1s0.2,0-1-0.7s-1.4-0.8-1.8-1s-0.4-0.3-0.7-0.3c-0.3,0-0.4,0.7-0.8,0.7
					c-0.3,0-1.7,0.2-1.9,0.3c-0.3,0.1-0.4,0.1-1.1,0.1c-0.6,0-1.5-0.2-1.5-0.2S452.3,599.3,452.2,599.5z"/>
				<path class="st48" d="M447.2,595.1c0,0,0.1-1-0.2-1.9c-0.2-0.9-0.3-0.3-0.3-1.1s0.3-1,0.4-1.8s0.5,0.1,0.2-1.4
					c-0.4-1.5-0.2-2.3-0.2-2.3l-0.1-0.8c0,0-0.1,1.7-0.2,2.5c0,0.8-0.2,1.6-0.2,1.6s-0.4-0.9-0.3-1.5c0.2-0.6,0.2-2.1,0.1-1.8
					c-0.3,0.7-0.8,0.4-0.7,1.5c0.2,1.1,0.1,1.6,0.1,2.2c0,0.6-0.2,1.3-0.3,0.3c-0.1-1-0.2-2,0-2.8c0.2-0.7,0.5-1.7,0.4-1.8
					s-1.2,1.4-1.1,2.4c0.2,1.1,0,2,0,2s-0.8,0.2-0.6-1.3c0.2-1.5,0.2-2.4,0.2-2.4s-0.1-0.2-0.3,1.1c-0.3,1.3-0.2,1.6-0.3,2.1
					c0,0.5-0.1,0.5,0,0.8s0.8,0.1,0.9,0.4c0.1,0.3,0.8,1.5,1,1.7s0.3,0.3,0.4,0.9c0.2,0.5,0.4,1.5,0.4,1.5S447,595.1,447.2,595.1z"
					/>
				<path class="st48" d="M448.6,605.6c0,0-0.1,1,0.2,1.9c0.2,0.9,0.3,0.3,0.3,1.1s-0.3,1-0.4,1.8s-0.5-0.1-0.2,1.4s0.2,2.3,0.2,2.3
					l0.1,0.8c0,0,0.1-1.7,0.2-2.5c0-0.8,0.2-1.6,0.2-1.6s0.4,0.9,0.3,1.5c-0.2,0.6-0.2,2.1-0.1,1.8c0.3-0.7,0.8-0.4,0.7-1.5
					c-0.2-1.1-0.1-1.6-0.1-2.2c0-0.6,0.2-1.3,0.3-0.3c0.1,1,0.2,2,0,2.8c-0.2,0.7-0.5,1.7-0.4,1.8s1.2-1.4,1.1-2.4c-0.2-1,0-2,0-2
					s0.8-0.2,0.6,1.3c-0.2,1.5-0.2,2.4-0.2,2.4s0.1,0.2,0.3-1.1c0.3-1.3,0.2-1.6,0.3-2.1c0-0.5,0.1-0.5,0-0.8s-0.8-0.1-0.9-0.4
					c-0.1-0.3-0.8-1.5-1-1.7s-0.3-0.3-0.4-0.9c-0.2-0.5-0.4-1.5-0.4-1.5S448.8,605.6,448.6,605.6z"/>
				<path class="st48" d="M443.3,597.3c0,0-0.8-0.7-1.6-1c-0.9-0.3-0.5,0.1-1-0.4s-0.6-0.8-1.2-1.4c-0.6-0.6,0.4-0.3-1-1
					s-2-1.3-2-1.3l-0.6-0.4c0,0,1.2,1.2,1.8,1.6c0.6,0.5,1.1,1.2,1.1,1.2s-1-0.2-1.4-0.8c-0.3-0.5-1.5-1.5-1.3-1.2
					c0.4,0.7-0.2,0.9,0.7,1.4c0.9,0.5,1.3,1,1.8,1.3c0.4,0.4,0.9,0.9,0.1,0.5s-1.7-1.1-2.1-1.7s-1.1-1.4-1.2-1.4s0.3,1.8,1.2,2.3
					s1.6,1.3,1.6,1.3s-0.4,0.8-1.4-0.3c-1.1-1.1-1.7-1.6-1.7-1.6s-0.2-0.1,0.7,1s1.1,1.2,1.4,1.5s0.3,0.4,0.6,0.5
					c0.3,0.1,0.6-0.6,0.9-0.5s1.6,0.3,1.9,0.3s0.4,0,1,0.2s1.4,0.7,1.4,0.7S443.1,597.4,443.3,597.3z"/>
				<path class="st48" d="M452.1,601.7c0,0,0.7,0.8,1.5,1.3c0.8,0.4,0.5,0,1,0.6s0.5,0.9,0.9,1.6c0.5,0.7-0.4,0.2,0.9,1.1
					c1.3,0.9,1.8,1.5,1.8,1.5l0.5,0.5c0,0-1.1-1.3-1.6-1.9c-0.5-0.6-1-1.3-1-1.3s1,0.3,1.3,0.9c0.3,0.6,1.3,1.7,1.2,1.4
					c-0.3-0.7,0.3-0.9-0.5-1.5c-0.9-0.6-1.2-1.1-1.6-1.6c-0.4-0.4-0.7-1.1,0-0.5c0.8,0.6,1.6,1.3,1.9,2c0.4,0.7,0.8,1.6,0.9,1.6
					s0-1.8-0.9-2.4c-0.9-0.6-1.4-1.4-1.4-1.4s0.5-0.7,1.4,0.6c0.9,1.2,1.5,1.9,1.5,1.9s0.2,0.1-0.5-1.1c-0.7-1.1-1-1.3-1.2-1.7
					c-0.3-0.4-0.2-0.4-0.5-0.6c-0.3-0.1-0.7,0.5-1,0.3c-0.3-0.1-1.6-0.5-1.9-0.6c-0.3,0-0.4-0.1-1-0.3c-0.5-0.3-1.3-0.9-1.3-0.9
					S452.3,601.6,452.1,601.7z"/>
				<path class="st48" d="M449.6,595.6c0,0,0.5-0.9,0.7-1.8c0.2-0.9-0.2-0.4,0.2-1.1c0.4-0.7,0.7-0.8,1.2-1.4
					c0.5-0.7,0.4,0.3,0.8-1.2c0.3-1.5,0.8-2.2,0.8-2.2l0.3-0.7c0,0-0.9,1.5-1.2,2.2c-0.4,0.7-1,1.4-1,1.4s0-1.1,0.5-1.5
					c0.4-0.5,1.1-1.7,0.8-1.6c-0.6,0.4-1,0-1.2,1c-0.3,1-0.7,1.5-0.9,2c-0.2,0.5-0.7,1.1-0.4,0.2c0.3-0.9,0.7-1.9,1.1-2.5
					c0.5-0.6,1.1-1.3,1.2-1.4c0-0.1-1.7,0.7-2,1.7s-0.9,1.8-0.9,1.8s-0.8-0.1,0-1.4c0.8-1.3,1.2-2.1,1.2-2.1s0-0.2-0.8,0.9
					c-0.8,1.1-1,1.4-1.2,1.8c-0.2,0.4-0.3,0.4-0.4,0.7c0,0.3,0.7,0.5,0.7,0.8s0.1,1.7,0.1,2c0.1,0.3,0.1,0.4,0,1.1
					c-0.1,0.6-0.3,1.5-0.3,1.5S449.4,595.5,449.6,595.6z"/>
				<path class="st48" d="M446.2,605.7c0,0-0.5,0.9-0.7,1.8c-0.2,0.9,0.2,0.4-0.2,1.1c-0.4,0.7-0.7,0.8-1.2,1.4s-0.4-0.3-0.8,1.2
					c-0.3,1.5-0.8,2.2-0.8,2.2l-0.3,0.7c0,0,0.9-1.5,1.2-2.2c0.4-0.7,1-1.4,1-1.4s0,1.1-0.5,1.5c-0.4,0.5-1.1,1.7-0.8,1.6
					c0.6-0.4,1,0,1.2-1c0.3-1,0.7-1.5,0.9-2c0.2-0.5,0.7-1.1,0.4-0.2c-0.3,0.9-0.7,1.9-1.1,2.5s-1.1,1.3-1.2,1.4
					c0,0.1,1.7-0.7,2-1.7s0.9-1.8,0.9-1.8s0.8,0.1,0,1.4c-0.8,1.3-1.2,2.1-1.2,2.1s0,0.2,0.8-0.9s1-1.4,1.2-1.8
					c0.3-0.4,0.3-0.4,0.4-0.7c0-0.3-0.7-0.5-0.7-0.8s-0.1-1.7-0.1-2s-0.1-0.4,0-1.1c0.1-0.6,0.3-1.5,0.3-1.5
					S446.4,605.8,446.2,605.7z"/>
				<path class="st48" d="M444.8,596c0,0-0.4-0.9-1.1-1.6c-0.7-0.7-0.4-0.1-0.8-0.8s-0.3-1-0.5-1.8s0.5-0.1-0.5-1.3
					c-1.1-1.1-1.3-1.9-1.3-1.9l-0.4-0.6c0,0,0.7,1.5,1.1,2.2s0.6,1.6,0.6,1.6s-0.9-0.6-1-1.2c-0.1-0.6-0.8-1.9-0.8-1.6
					c0.1,0.8-0.5,0.8,0.2,1.6s0.9,1.4,1.1,1.9c0.3,0.5,0.5,1.2-0.1,0.4s-1.2-1.6-1.4-2.4c-0.2-0.7-0.5-1.7-0.5-1.8
					c-0.1,0-0.4,1.8,0.2,2.6c0.7,0.8,1,1.7,1,1.7s-0.6,0.6-1.2-0.9s-1-2.2-1-2.2s-0.2-0.1,0.3,1.1c0.4,1.3,0.6,1.6,0.7,2
					c0.2,0.4,0.1,0.5,0.4,0.7s0.8-0.3,1-0.1s1.4,0.9,1.7,1c0.3,0.1,0.4,0.2,0.9,0.6c0.5,0.4,1.1,1.1,1.1,1.1S444.6,596,444.8,596z"
					/>
				<path class="st48" d="M451.4,603.3c0,0,0.3,1,0.9,1.7c0.6,0.8,0.4,0.1,0.7,0.9c0.3,0.7,0.1,1.1,0.3,1.8c0.2,0.8-0.5,0,0.3,1.3
					c0.9,1.3,1.1,2.1,1.1,2.1l0.4,0.7c0,0-0.5-1.6-0.7-2.4s-0.4-1.6-0.4-1.6s0.8,0.7,0.8,1.4s0.5,2,0.6,1.7c0-0.8,0.6-0.7,0.1-1.6
					c-0.5-0.9-0.7-1.5-0.9-2s-0.3-1.2,0.1-0.4c0.5,0.9,1,1.8,1.1,2.5c0.1,0.8,0.2,1.8,0.3,1.8c0.1,0,0.7-1.7,0.1-2.6
					c-0.5-0.9-0.7-1.8-0.7-1.8s0.7-0.5,1.1,1s0.7,2.3,0.7,2.3s0.1,0.1-0.1-1.2s-0.4-1.6-0.5-2.1c-0.1-0.4,0-0.5-0.3-0.7
					c-0.2-0.2-0.8,0.2-1,0s-1.3-1.1-1.6-1.3c-0.3-0.2-0.3-0.2-0.8-0.7c-0.4-0.5-0.9-1.3-0.9-1.3S451.6,603.3,451.4,603.3z"/>
				<path class="st48" d="M451.3,596.7c0,0,0.8-0.6,1.3-1.4c0.5-0.8,0-0.5,0.6-1s0.9-0.4,1.6-0.9s0.2,0.4,1.1-0.8
					c0.9-1.3,1.5-1.7,1.5-1.7l0.5-0.5c0,0-1.3,1.1-1.9,1.6s-1.3,1-1.3,1s0.4-1,1-1.3s1.7-1.3,1.4-1.2c-0.7,0.3-0.9-0.3-1.5,0.5
					c-0.6,0.9-1.2,1.1-1.6,1.5s-1.1,0.7-0.5,0c0.6-0.8,1.4-1.5,2-1.9c0.7-0.4,1.6-0.8,1.6-0.9s-1.8,0-2.5,0.8
					c-0.6,0.9-1.5,1.3-1.5,1.3s-0.7-0.5,0.6-1.4s1.9-1.4,1.9-1.4s0.1-0.2-1.1,0.5c-1.1,0.7-1.3,1-1.7,1.2s-0.4,0.2-0.6,0.5
					s0.5,0.7,0.3,1c-0.1,0.3-0.5,1.6-0.6,1.9c-0.1,0.3-0.1,0.4-0.4,1s-0.9,1.3-0.9,1.3S451.2,596.5,451.3,596.7z"/>
				<path class="st48" d="M444.5,604.8c0,0-0.8,0.6-1.3,1.4s0,0.5-0.6,1s-0.9,0.4-1.6,0.9s-0.2-0.4-1.1,0.8
					c-0.9,1.3-1.5,1.7-1.5,1.7l-0.5,0.5c0,0,1.3-1.1,1.9-1.6s1.3-1,1.3-1s-0.4,1-1,1.3s-1.7,1.3-1.4,1.2c0.7-0.3,0.9,0.3,1.5-0.5
					c0.6-0.9,1.2-1.1,1.6-1.5s1.1-0.7,0.5,0c-0.6,0.8-1.4,1.5-2,1.9c-0.7,0.4-1.6,0.8-1.6,0.9c0,0.1,1.8,0,2.5-0.8
					c0.6-0.9,1.5-1.3,1.5-1.3s0.7,0.5-0.6,1.4s-1.9,1.4-1.9,1.4s-0.1,0.2,1.1-0.5s1.3-1,1.7-1.2s0.4-0.2,0.6-0.5
					c0.1-0.3-0.5-0.7-0.3-1c0.1-0.3,0.5-1.6,0.6-1.9c0.1-0.3,0.1-0.4,0.4-1s0.9-1.3,0.9-1.3S444.6,605,444.5,604.8z"/>
				<path class="st48" d="M452.4,598.9c0,0,1-0.1,1.8-0.6c0.9-0.4,0.2-0.4,1-0.5c0.8-0.2,1,0.1,1.8,0c0.9-0.1,0,0.5,1.4-0.1
					s2.3-0.7,2.3-0.7l0.7-0.2c0,0-1.7,0.2-2.5,0.4s-1.7,0.1-1.7,0.1s0.8-0.6,1.5-0.6c0.7,0.1,2.1-0.2,1.7-0.3
					c-0.7-0.2-0.6-0.7-1.6-0.3s-1.6,0.4-2.1,0.5s-1.3,0.1-0.4-0.2s2-0.6,2.7-0.6s1.7,0.1,1.8,0c0.1-0.1-1.6-0.9-2.5-0.6
					c-1,0.4-1.9,0.4-1.9,0.4s-0.4-0.8,1.2-0.9c1.5-0.1,2.4-0.3,2.4-0.3s0.1-0.1-1.2-0.1c-1.4,0-1.7,0.1-2.1,0.2
					c-0.5,0.1-0.5,0-0.8,0.2s0.1,0.9-0.2,1c-0.2,0.2-1.3,1.1-1.5,1.3s-0.3,0.3-0.8,0.6s-1.4,0.7-1.4,0.7S452.4,598.7,452.4,598.9z"
					/>
				<path class="st48" d="M442.5,602.5c0,0-1,0.1-1.8,0.6c-0.9,0.4-0.2,0.4-1,0.5c-0.8,0.2-1-0.1-1.8,0s0-0.5-1.4,0.1
					s-2.3,0.7-2.3,0.7l-0.7,0.2c0,0,1.7-0.2,2.5-0.4s1.7-0.1,1.7-0.1s-0.8,0.6-1.5,0.6c-0.7-0.1-2.1,0.2-1.7,0.3
					c0.7,0.2,0.6,0.7,1.6,0.3s1.6-0.4,2.1-0.5s1.3-0.1,0.4,0.2s-2,0.6-2.7,0.6s-1.7-0.1-1.8,0c-0.1,0.1,1.6,0.9,2.5,0.6
					c1-0.4,1.9-0.4,1.9-0.4s0.4,0.8-1.2,0.9c-1.5,0.1-2.4,0.3-2.4,0.3s-0.1,0.1,1.2,0.1c1.4,0,1.7-0.1,2.1-0.2
					c0.5-0.1,0.5,0,0.8-0.2c0.2-0.2-0.1-0.9,0.2-1c0.2-0.2,1.3-1.1,1.5-1.3s0.3-0.3,0.8-0.6s1.4-0.7,1.4-0.7
					S442.5,602.7,442.5,602.5z"/>
			</g>
			<circle cx="447.9" cy="600.3" r="5.5"/>
			<g>
				<path class="st49" d="M449.7,598.7l-3.1-4.6c0,0-2.5,0-2.6,1.7c-0.1,1.8,0.8,1.9,2.2,3.9C447.6,601.7,449.7,598.7,449.7,598.7z"
					/>
				<path class="st50" d="M446.6,593.3l3.9-2.3c0,0,4.4,3.9,5.3,5.8s0.5,3.4,0.5,3.4l-5-2.1L446.6,593.3z"/>
			</g>
		</g>
	</g>
</g>
<g>
	<g>
		<path class="st31" d="M598.5,562c25.8-18.3,46.1,2.3,58.2,6.4c12.1,4,8-3.4,15.6-15.1s-19.9-16.8-35-20.7
			c-37.4-9.8-74.6,24.9-74.6,24.9C550.6,578.6,572.6,580.3,598.5,562z"/>
		<path class="st32" d="M619,559.5c-21-0.6-30.7,21.7-31.9,22.8c-1.2,1-8,3.4-7.7,5.1c0.3,1.8,3.3,1.3,7.2,0.8
			c3.9-0.6,13.5,1.6,13.5,1.6c21.5,4.4,34.5-4.5,38.8-5.1c4.4-0.6,4.5-2.8,9.6-7.2c5.2-4.3,2.4-5.3,2.4-5.3S640,560.1,619,559.5z"/>
		<g>
			<g>
				<g>
					<g>
						<g>
							<defs>
								<path id="SVGID_3_" d="M619,559.5c-21-0.6-30.7,21.7-31.9,22.8c-1.2,1-8,3.4-7.7,5.1c0.3,1.8,3.3,1.3,7.2,0.8
									c3.9-0.6,13.5,1.6,13.5,1.6c21.5,4.4,34.5-4.5,38.8-5.1c4.4-0.6,4.5-2.8,9.6-7.2c5.2-4.3,2.4-5.3,2.4-5.3
									S640,560.1,619,559.5z"/>
							</defs>
							<clipPath id="SVGID_4_">
								<use xlink:href="#SVGID_3_"  style="overflow:visible;"/>
							</clipPath>
							<g class="st51">
								<circle class="st44" cx="615.2" cy="575.8" r="17.8"/>
								<path class="st45" d="M597.5,578.4c1.4,9.8,10.4,16.5,20.2,15.1s16.5-10.4,15.1-20.2s-10.4-16.5-20.2-15.1
									S596.1,568.6,597.5,578.4z M600.6,578.6c-1.4-2.3,0.3-5,0.6-7.8s1.5-2.3,2.8-4.6c1.4-2.3,3.4-3.2,7-4.8s9.4-0.3,9.4-0.3
									c1.4-0.2,2,2.2,3.6,3.3c1.5,1.2,2.1,2.5,3.7,4c1.6,1.5,0.5,1,1.5,2.8s-0.2,1.2,0.3,4.3c0.4,3.1-1.9,8.3-2.7,10
									s-2.7,3.7-5.3,4.8s-2.5-0.3-6.4-0.8s-6.2-1.6-7.2-1.7c-1.1-0.2-1.5-0.9-3.8-2.2C601.8,584.1,602,580.9,600.6,578.6z"/>
								<path class="st46" d="M600.4,578.8c-2.3,0.2,3.9-1,3.9-1C606.8,577.8,602.7,578.6,600.4,578.8z"/>
								<path class="st46" d="M626.4,575.1c-2.3,0.2,3.9-1,3.9-1C632.7,574,628.7,574.9,626.4,575.1z"/>
								<path class="st46" d="M600.7,580.2c-2.4,0.3,3.8-1.4,3.8-1.4C606.9,578.5,603,579.8,600.7,580.2z"/>
								<path class="st46" d="M626.2,574.1c-2.4,0.3,3.8-1.4,3.8-1.4C632.5,572.5,628.5,573.7,626.2,574.1z"/>
								<path class="st46" d="M601,581.5c-2.3,0.6,3.7-1.8,3.7-1.8C607.1,579.2,603.3,580.9,601,581.5z"/>
								<path class="st46" d="M625.9,573.1c-2.3,0.6,3.7-1.8,3.7-1.8C632,571,628.2,572.6,625.9,573.1z"/>
								<path class="st46" d="M601.5,582.7c-2.2,0.8,3.5-2.1,3.5-2.1C607.4,580,603.8,582,601.5,582.7z"/>
								<path class="st46" d="M625.6,572.3c-2.2,0.8,3.5-2.1,3.5-2.1C631.5,569.5,627.8,571.5,625.6,572.3z"/>
								<path class="st46" d="M602.2,584c-2.1,1,3.3-2.4,3.3-2.4C607.8,580.7,604.3,583,602.2,584z"/>
								<path class="st46" d="M625.2,571.3c-2.1,1,3.3-2.4,3.3-2.4C630.9,568.1,627.3,570.4,625.2,571.3z"/>
								<path class="st46" d="M602.8,585.1c-2,1.2,3.1-2.7,3.1-2.7C608.2,581.4,604.9,584,602.8,585.1z"/>
								<path class="st46" d="M624.7,570.5c-2,1.2,3.1-2.7,3.1-2.7C630,566.8,626.7,569.4,624.7,570.5z"/>
								<path class="st46" d="M603.7,586.2c-2,1.4,2.9-3,2.9-3C608.7,582,605.7,584.9,603.7,586.2z"/>
								<path class="st46" d="M624.1,569.7c-2,1.4,2.9-3,2.9-3C629.1,565.5,626.1,568.4,624.1,569.7z"/>
								<path class="st46" d="M604.7,587.2c-1.9,1.5,2.6-3.2,2.6-3.2C609.2,582.6,606.5,585.7,604.7,587.2z"/>
								<path class="st46" d="M623.5,569c-1.8,1.5,2.6-3.2,2.6-3.2C628.1,564.3,625.3,567.4,623.5,569z"/>
								<path class="st46" d="M605.6,588.1c-1.7,1.7,2.3-3.4,2.3-3.4C609.8,583.1,607.3,586.4,605.6,588.1z"/>
								<path class="st46" d="M622.8,568.3c-1.7,1.7,2.3-3.4,2.3-3.4C626.9,563.3,624.5,566.6,622.8,568.3z"/>
								<path class="st46" d="M606.8,589c-1.5,1.8,1.9-3.6,1.9-3.6C610.4,583.6,608.3,587.2,606.8,589z"/>
								<path class="st46" d="M622,567.6c-1.5,1.8,1.9-3.6,1.9-3.6C625.7,562.3,623.6,565.8,622,567.6z"/>
								<path class="st46" d="M607.8,589.7c-1.4,1.9,1.7-3.8,1.7-3.8C611.1,584,609.3,587.7,607.8,589.7z"/>
								<path class="st46" d="M621.2,567.1c-1.4,1.9,1.7-3.8,1.7-3.8C624.4,561.4,622.6,565.2,621.2,567.1z"/>
								<path class="st46" d="M609.1,590.3c-1.2,2.1,1.3-3.9,1.3-3.9C611.7,584.4,610.3,588.3,609.1,590.3z"/>
								<path class="st46" d="M620.4,566.6c-1.2,2.1,1.3-3.9,1.3-3.9C623,560.7,621.6,564.5,620.4,566.6z"/>
								<path class="st46" d="M610.4,590.8c-1,2.1,1-4,1-4C612.5,584.7,611.4,588.7,610.4,590.8z"/>
								<path class="st46" d="M619.5,566.2c-1,2.1,1-4,1-4C621.6,560.1,620.5,564.1,619.5,566.2z"/>
								<path class="st46" d="M611.7,591.2c-0.8,2.3,0.6-4.1,0.6-4.1C613.2,584.9,612.4,589,611.7,591.2z"/>
								<path class="st46" d="M618.5,565.9c-0.8,2.3,0.6-4.1,0.6-4.1C620.1,559.6,619.3,563.6,618.5,565.9z"/>
								<path class="st46" d="M613,591.5c-0.6,2.3,0.2-4.1,0.2-4.1C614,585.1,613.6,589.2,613,591.5z"/>
								<path class="st46" d="M617.6,565.7c-0.6,2.3,0.2-4.1,0.2-4.1C618.6,559.2,618.2,563.4,617.6,565.7z"/>
								<path class="st46" d="M614.4,591.6c-0.4,2.4-0.1-4.1-0.1-4.1C614.8,585.2,614.8,589.3,614.4,591.6z"/>
								<path class="st46" d="M616.6,565.5c-0.4,2.4-0.1-4.1-0.1-4.1C617,559,617,563.2,616.6,565.5z"/>
								<path class="st46" d="M615.7,591.7c-0.2,2.4-0.5-4.1-0.5-4.1C615.6,585.2,615.9,589.4,615.7,591.7z"/>
								<path class="st46" d="M615.6,565.4c-0.2,2.4-0.5-4.1-0.5-4.1C615.5,558.9,615.8,563.1,615.6,565.4z"/>
								<path class="st46" d="M617.1,591.6c0,2.4-0.9-4-0.9-4C616.4,585.1,617.1,589.2,617.1,591.6z"/>
								<path class="st46" d="M614.6,565.5c0,2.4-0.9-4-0.9-4C613.9,559,614.6,563.1,614.6,565.5z"/>
								<path class="st46" d="M618.4,591.3c0.2,2.4-1.2-3.9-1.2-3.9C617.1,585,618.2,589.1,618.4,591.3z"/>
								<path class="st46" d="M613.7,565.6c0.2,2.4-1.2-3.9-1.2-3.9C612.3,559.2,613.5,563.2,613.7,565.6z"/>
								<path class="st46" d="M619.8,591c0.4,2.3-1.6-3.8-1.6-3.8C617.9,584.9,619.4,588.8,619.8,591z"/>
								<path class="st46" d="M612.7,565.8c0.4,2.3-1.6-3.8-1.6-3.8C610.8,559.6,612.3,563.4,612.7,565.8z"/>
								<path class="st46" d="M621.1,590.6c0.6,2.3-1.9-3.6-1.9-3.6C618.6,584.6,620.4,588.4,621.1,590.6z"/>
								<path class="st46" d="M611.8,566c0.6,2.3-1.9-3.6-1.9-3.6C609.3,560.1,611.2,563.8,611.8,566z"/>
								<path class="st46" d="M622.3,590.1c0.9,2.2-2.2-3.5-2.2-3.5C619.3,584.3,621.5,587.9,622.3,590.1z"/>
								<path class="st46" d="M610.9,566.5c0.9,2.2-2.2-3.5-2.2-3.5C607.9,560.7,610,564.3,610.9,566.5z"/>
								<path class="st46" d="M623.5,589.4c1,2.1-2.5-3.2-2.5-3.2C620.1,583.9,622.5,587.3,623.5,589.4z"/>
								<path class="st46" d="M610,566.9c1,2.1-2.6-3.2-2.6-3.2C606.5,561.4,608.9,564.8,610,566.9z"/>
								<path class="st46" d="M624.6,588.7c1.3,2-2.8-3-2.8-3C620.7,583.5,623.4,586.6,624.6,588.7z"/>
								<path class="st46" d="M609.1,567.5c1.3,2-2.8-3-2.8-3C605.2,562.3,607.9,565.4,609.1,567.5z"/>
								<path class="st46" d="M624.6,588.7c1.3,2-2.8-3-2.8-3C620.7,583.5,623.4,586.6,624.6,588.7z"/>
								<path class="st46" d="M609.1,567.5c1.3,2-2.8-3-2.8-3C605.2,562.3,607.9,565.4,609.1,567.5z"/>
								<path class="st46" d="M625.7,587.8c1.4,1.9-3.1-2.7-3.1-2.7C621.3,583,624.3,585.9,625.7,587.8z"/>
								<path class="st46" d="M608.4,568c1.4,1.9-3.1-2.7-3.1-2.7C604,563.2,607,566.1,608.4,568z"/>
								<path class="st46" d="M626.6,586.8c1.6,1.8-3.3-2.4-3.3-2.4C621.9,582.4,625.1,585,626.6,586.8z"/>
								<path class="st46" d="M607.7,568.7c1.6,1.8-3.3-2.5-3.3-2.5C602.8,564.3,606.1,566.9,607.7,568.7z"/>
								<path class="st46" d="M627.6,585.7c1.7,1.6-3.5-2.2-3.5-2.2C622.4,581.8,625.8,584.1,627.6,585.7z"/>
								<path class="st46" d="M607,569.4c1.7,1.6-3.5-2.2-3.5-2.2C601.8,565.5,605.3,567.8,607,569.4z"/>
								<path class="st46" d="M628.3,584.7c1.8,1.4-3.7-1.8-3.7-1.8C622.9,581.2,626.5,583.2,628.3,584.7z"/>
								<path class="st46" d="M606.4,570.2c1.8,1.4-3.7-1.8-3.7-1.8C600.9,566.8,604.5,568.8,606.4,570.2z"/>
								<path class="st46" d="M629,583.5c2,1.3-3.8-1.5-3.8-1.5C623.2,580.5,627,582.1,629,583.5z"/>
								<path class="st46" d="M605.9,571c2,1.3-3.8-1.5-3.8-1.5C600.1,568.1,603.9,569.8,605.9,571z"/>
								<path class="st46" d="M629.6,582.2c2,1.1-3.9-1.1-3.9-1.1C623.5,579.8,627.6,581.1,629.6,582.2z"/>
								<path class="st46" d="M605.5,571.9c2,1.1-3.9-1.1-3.9-1.1C599.4,569.5,603.4,570.8,605.5,571.9z"/>
								<path class="st46" d="M630,580.9c2.2,0.9-4-0.8-4-0.8C623.8,579.1,627.9,580,630,580.9z"/>
								<path class="st46" d="M605,572.8c2.2,0.9-4-0.8-4-0.8C598.8,571,602.9,571.9,605,572.8z"/>
								<path class="st46" d="M630.4,579.6c2.3,0.8-4.1-0.4-4.1-0.4C624,578.3,628.2,578.9,630.4,579.6z"/>
								<path class="st46" d="M604.8,573.8c2.3,0.8-4.1-0.4-4.1-0.4C598.4,572.5,602.6,573.1,604.8,573.8z"/>
								<path class="st46" d="M630.6,578.2c2.3,0.5-4.1,0-4.1,0C624.1,577.5,628.3,577.8,630.6,578.2z"/>
								<path class="st46" d="M604.6,574.7c2.3,0.5-4.1,0-4.1,0C598.1,574,602.3,574.2,604.6,574.7z"/>
								<path class="st46" d="M630.7,576.9c2.4,0.3-4.1,0.3-4.1,0.3C624.2,576.8,628.4,576.6,630.7,576.9z"/>
								<path class="st46" d="M604.5,575.7c2.4,0.3-4.1,0.3-4.1,0.3C598,575.6,602.2,575.4,604.5,575.7z"/>
								<path class="st46" d="M630.7,575.5c2.4,0.1-4,0.7-4,0.7C624.2,576,628.3,575.4,630.7,575.5z"/>
								<path class="st46" d="M604.5,576.7c2.4,0.1-4,0.7-4,0.7C598,577.1,602.1,576.6,604.5,576.7z"/>
								<g class="st47">
									<path class="st48" d="M621,574.7c0,0,0.9-0.3,1.5-0.4c0.7-0.1,0.7-0.1,1.1-0.1c0.4,0.1,1.7,0.1,2,0
										c0.4-0.1,0.5,0.7,0.9,0.6c0.4-0.1,0.3-0.2,0.7-0.4s0.7-0.4,1.7-1.3c1-0.9,0.8-0.9,0.8-0.9s-0.8,0.4-2,1.4
										c-1.2,0.9-1.5,0.1-1.5,0.1s0.7-0.7,1.7-1s1.7-2.1,1.6-2.1c-0.1,0-0.9,0.8-1.4,1.3s-1.5,1-2.4,1.3s-0.3-0.2,0.1-0.4
										c0.5-0.3,1-0.7,1.9-1c1-0.4,0.6-0.7,1-1.3c0.2-0.2-1.1,0.5-1.5,1s-1.5,0.5-1.5,0.5s0.6-0.7,1.3-1.1
										c0.7-0.4,2.1-1.4,2.1-1.4l-0.7,0.3c0,0-0.7,0.5-2.2,0.9s-0.5,0.2-1.2,0.8c-0.6,0.6-0.7,0.9-1.4,1.3c-0.7,0.4-0.2,0-1.1,0.3
										c-0.9,0.2-1.8,0.8-1.8,0.8C621,574,621,574.7,621,574.7z"/>
									<path class="st48" d="M611,575.9c0,0-0.8,0.4-1.4,0.6c-0.6,0.1-0.7,0.2-1,0.2c-0.4,0-1.7,0.2-2,0.2
										c-0.3,0.1-0.6-0.6-0.9-0.5c-0.3,0.1-0.3,0.2-0.6,0.5s-0.6,0.5-1.5,1.5s-0.7,1-0.7,1s0.7-0.5,1.8-1.6s1.4-0.3,1.4-0.3
										s-0.6,0.8-1.6,1.2c-1,0.5-1.4,2.3-1.3,2.3c0.1-0.1,0.7-0.9,1.2-1.4s1.4-1.2,2.2-1.6c0.9-0.5,0.4,0.1-0.1,0.5
										c-0.4,0.3-0.8,0.8-1.8,1.3s-0.5,0.8-0.8,1.4c-0.2,0.3,1-0.6,1.4-1.2c0.4-0.5,1.4-0.7,1.4-0.7s-0.6,0.7-1.2,1.2
										c-0.6,0.5-1.9,1.7-1.9,1.7l0.7-0.4c0,0,0.6-0.6,2-1.3s0.4-0.4,1-1s0.6-1,1.2-1.4c0.6-0.5,0.2-0.1,1.1-0.4
										c0.8-0.4,1.6-1,1.6-1C611.1,576.5,611,575.9,611,575.9z"/>
									<path class="st48" d="M615.6,571c0,0-0.1-1-0.1-1.6s0-0.7,0.2-1s0.4-1.6,0.5-1.9c0-0.3,0.8-0.4,0.8-0.7s-0.1-0.3-0.3-0.7
										s-0.3-0.7-0.8-2c-0.6-1.2-0.6-1-0.6-1s0.2,0.9,0.8,2.2c0.7,1.4-0.2,1.4-0.2,1.4s-0.4-0.9-0.6-1.9c-0.2-1.1-1.7-2.1-1.7-2
										s0.5,0.9,0.9,1.6c0.4,0.7,0.6,1.7,0.7,2.7c0.1,1-0.2,0.3-0.4-0.2c-0.1-0.5-0.4-1.1-0.6-2.1c-0.2-1.1-0.6-0.7-1-1.2
										c-0.2-0.3,0.2,1.1,0.6,1.7c0.3,0.6,0.2,1.6,0.2,1.6s-0.5-0.8-0.7-1.5c-0.3-0.7-0.8-2.3-0.8-2.3l0.2,0.7
										c0,0,0.4,0.8,0.4,2.3c0.1,1.6,0.2,0.5,0.5,1.3c0.4,0.7,0.7,0.9,0.9,1.6c0.3,0.8,0,0.2,0,1.2c0,0.9,0.4,1.9,0.4,1.9
										C615.1,571,615.6,571,615.6,571z"/>
									<path class="st48" d="M615.8,581.6c0,0,0.1,1,0.1,1.6s0,0.7-0.2,1s-0.4,1.6-0.5,1.9c0,0.3-0.8,0.4-0.8,0.7s0.1,0.3,0.3,0.7
										s0.3,0.7,0.8,2c0.6,1.2,0.6,1,0.6,1s-0.2-0.9-0.8-2.2c-0.7-1.4,0.2-1.4,0.2-1.4s0.5,0.9,0.6,1.9c0.2,1.1,1.7,2.1,1.7,2
										s-0.5-0.9-0.9-1.6s-0.6-1.7-0.7-2.7s0.2-0.3,0.4,0.2c0.1,0.5,0.4,1.1,0.6,2.1c0.1,1,0.6,0.7,1,1.2c0.2,0.3-0.2-1.1-0.6-1.7
										c-0.3-0.6-0.2-1.6-0.2-1.6s0.5,0.8,0.7,1.5c0.3,0.7,0.8,2.3,0.8,2.3l-0.2-0.7c0,0-0.4-0.8-0.4-2.3
										c-0.1-1.6-0.2-0.5-0.5-1.3c-0.4-0.7-0.7-0.9-0.9-1.6c-0.3-0.8,0-0.2,0-1.2c0-0.9-0.4-1.9-0.4-1.9
										C616.3,581.7,615.8,581.6,615.8,581.6z"/>
									<path class="st48" d="M619.8,572.7c0,0,0.7-0.7,1.2-1s0.6-0.4,0.9-0.5c0.3-0.1,1.5-0.7,1.8-0.8c0.2-0.2,0.8,0.4,1,0.2
										s0.2-0.2,0.4-0.6c0.2-0.4,0.5-0.6,1-1.9c0.5-1.2,0.4-1.1,0.4-1.1s-0.5,0.7-1.2,2.1c-0.7,1.3-1.3,0.7-1.3,0.7
										s0.4-0.8,1.1-1.6c0.8-0.8,0.6-2.6,0.5-2.6c0,0.1-0.4,1-0.7,1.7s-0.9,1.6-1.6,2.2c-0.7,0.7-0.4,0-0.1-0.5
										c0.3-0.5,0.6-1.1,1.3-1.8c0.7-0.8,0.1-0.8,0.3-1.6c0.1-0.3-0.8,0.9-1,1.5c-0.2,0.7-1.1,1.1-1.1,1.1s0.3-0.9,0.8-1.5
										c0.4-0.6,1.3-2.1,1.3-2.1l-0.5,0.5c0,0-0.4,0.7-1.5,1.8c-1.1,1-0.3,0.5-0.7,1.2s-0.3,1.1-0.7,1.7c-0.5,0.6-0.1,0.1-0.9,0.7
										c-0.7,0.6-1.3,1.5-1.3,1.5C619.5,572.2,619.8,572.7,619.8,572.7z"/>
									<path class="st48" d="M611.4,578.4c0,0-0.6,0.8-1,1.2c-0.5,0.4-0.5,0.5-0.8,0.6s-1.5,0.9-1.6,1.1c-0.2,0.2-0.8-0.2-1-0.1
										c-0.2,0.2-0.1,0.3-0.3,0.7s-0.4,0.7-0.7,2c-0.4,1.3-0.2,1.2-0.2,1.2s0.3-0.8,0.9-2.2c0.5-1.5,1.1-0.9,1.1-0.9
										s-0.2,0.9-0.9,1.8c-0.6,0.9-0.2,2.7-0.1,2.6c0.1-0.1,0.3-1.1,0.5-1.8s0.7-1.6,1.3-2.4c0.6-0.8,0.3-0.1,0.1,0.4
										s-0.4,1-1.1,1.9c-0.6,0.8,0,0.8-0.1,1.6c0,0.3,0.6-1,0.7-1.6c0.1-0.7,0.9-1.3,0.9-1.3s-0.2,0.9-0.5,1.6
										c-0.4,0.7-1,2.3-1,2.3l0.4-0.6c0,0,0.3-0.8,1.3-2s0.3-0.5,0.5-1.3s0.1-1.1,0.5-1.8s0.1-0.2,0.8-0.9c0.6-0.7,1-1.6,1-1.6
										C611.8,578.8,611.4,578.4,611.4,578.4z"/>
									<path class="st48" d="M613.4,571.8c0,0-0.5-0.8-0.8-1.4c-0.2-0.6-0.3-0.7-0.3-1c0-0.4-0.3-1.6-0.4-1.9
										c-0.1-0.3,0.5-0.6,0.4-0.9c-0.1-0.2-0.2-0.2-0.5-0.5c-0.4-0.3-0.5-0.5-1.6-1.4s-1-0.6-1-0.6s0.6,0.6,1.7,1.6
										c1.2,1,0.5,1.4,0.5,1.4s-0.7-0.6-1.3-1.4s-2.4-1.1-2.4-1c0.1,0.1,0.9,0.6,1.5,1.1c0.6,0.4,1.3,1.3,1.8,2
										c0.6,0.8-0.1,0.4-0.5,0s-0.9-0.7-1.4-1.6c-0.5-0.9-0.8-0.3-1.5-0.7c-0.3-0.1,0.7,1,1.3,1.3s0.9,1.3,0.9,1.3s-0.8-0.5-1.3-1
										c-0.5-0.6-1.8-1.7-1.8-1.7l0.4,0.6c0,0,0.6,0.6,1.4,1.9c0.8,1.4,0.4,0.4,1.1,0.9c0.6,0.5,1,0.5,1.5,1.1s0.1,0.2,0.5,1
										c0.5,0.8,1.2,1.5,1.2,1.5C612.9,572.1,613.4,571.8,613.4,571.8z"/>
									<path class="st48" d="M618.2,581.4c0,0,0.5,0.8,0.8,1.4c0.2,0.6,0.3,0.7,0.3,1c0,0.4,0.3,1.6,0.4,1.9
										c0.1,0.3-0.5,0.6-0.4,0.9c0.1,0.2,0.2,0.2,0.5,0.5s0.5,0.5,1.6,1.4c1.1,0.8,1,0.6,1,0.6s-0.6-0.6-1.7-1.6
										c-1.2-1-0.5-1.4-0.5-1.4s0.7,0.6,1.3,1.4c0.6,0.9,2.4,1.1,2.4,1c-0.1-0.1-0.9-0.6-1.5-1.1c-0.6-0.4-1.3-1.3-1.8-2
										c-0.6-0.8,0.1-0.4,0.5,0s0.9,0.7,1.4,1.6c0.5,0.9,0.8,0.3,1.5,0.7c0.3,0.1-0.7-1-1.3-1.3s-0.9-1.3-0.9-1.3s0.8,0.5,1.3,1
										c0.5,0.6,1.8,1.7,1.8,1.7l-0.4-0.6c0,0-0.6-0.6-1.4-1.9c-0.8-1.4-0.4-0.4-1.1-0.9c-0.6-0.5-1-0.5-1.5-1.1s-0.1-0.2-0.5-1
										c-0.5-0.8-1.2-1.5-1.2-1.5C618.6,581.1,618.2,581.4,618.2,581.4z"/>
									<path class="st48" d="M618.2,571.7c0,0,0.4-0.9,0.7-1.4c0.4-0.5,0.4-0.6,0.7-0.8c0.2-0.2,1.2-1.2,1.4-1.5
										c0.2-0.2,0.8,0.1,1-0.2s0.1-0.3,0.1-0.8c0.1-0.5,0.1-0.8,0.2-2.1c0.1-1.3-0.1-1.2-0.1-1.2s-0.2,0.9-0.4,2.4
										s-0.9,1.2-0.9,1.2s0.1-1,0.5-2s-0.4-2.7-0.5-2.6c0,0.1,0,1.1,0,1.8s-0.3,1.7-0.7,2.7c-0.3,0.9-0.3,0.2-0.2-0.4
										c0.1-0.6,0.2-1.2,0.6-2.1c0.4-0.9-0.2-0.8-0.3-1.5c-0.1-0.3-0.4,1.1-0.3,1.7c0,0.7-0.6,1.5-0.6,1.5s0-0.9,0.1-1.7
										s0.4-2.4,0.4-2.4l-0.3,0.7c0,0,0,0.8-0.8,2.2c-0.7,1.4-0.1,0.6-0.2,1.4c0,0.8,0.1,1.1,0,1.8c-0.2,0.8-0.1,0.2-0.6,1
										c-0.4,0.8-0.6,1.8-0.6,1.8C617.6,571.2,618.2,571.7,618.2,571.7z"/>
									<path class="st48" d="M612.3,579.9c0,0-0.2,0.9-0.5,1.5s-0.4,0.7-0.5,0.9c-0.2,0.2-1,1.4-1.1,1.6c-0.1,0.3-0.9,0.1-1,0.3
										c-0.1,0.3,0,0.4,0,0.8c0,0.5,0,0.8,0.1,2.1s0.2,1.1,0.2,1.1s0.1-0.9,0-2.4s0.7-1.3,0.7-1.3s0.1,1-0.2,2s0.8,2.6,0.8,2.5
										s-0.1-1.1-0.2-1.9s0.1-1.8,0.3-2.7s0.3-0.2,0.3,0.4c0,0.6,0,1.2-0.3,2.2s0.3,0.8,0.5,1.5c0.1,0.3,0.2-1.1,0.1-1.8
										c-0.1-0.6,0.4-1.5,0.4-1.5s0.1,0.9,0.1,1.7s-0.1,2.5-0.1,2.5l0.1-0.8c0,0-0.1-0.9,0.4-2.3c0.5-1.5,0-0.6,0-1.4
										c-0.1-0.8-0.3-1-0.2-1.9c0-0.8,0.1-0.2,0.4-1.1c0.3-0.9,0.3-1.9,0.3-1.9C612.9,580.2,612.3,579.9,612.3,579.9z"/>
									<path class="st48" d="M611.9,573.1c0,0-0.7-0.6-1.2-1c-0.4-0.5-0.5-0.5-0.6-0.8c-0.2-0.3-0.9-1.5-1.1-1.6
										c-0.2-0.2,0.2-0.8,0-1s-0.3-0.2-0.7-0.3s-0.7-0.4-2-0.7s-1.2-0.2-1.2-0.2s0.8,0.3,2.2,0.9c1.4,0.5,0.9,1.1,0.9,1.1
										s-0.9-0.2-1.8-0.9c-0.9-0.6-2.7-0.2-2.6-0.1c0.1,0.1,1.1,0.3,1.8,0.5s1.7,0.7,2.4,1.2c0.8,0.6,0.1,0.4-0.4,0.1
										c-0.5-0.2-1-0.4-1.9-1s-0.9,0-1.6,0c-0.3,0,1,0.6,1.6,0.7c0.7,0.1,1.3,0.9,1.3,0.9s-0.9-0.2-1.6-0.5s-2.3-1-2.3-1l0.6,0.4
										c0,0,0.8,0.2,2,1.2s0.5,0.3,1.3,0.5c0.8,0.3,1.1,0.2,1.8,0.5c0.7,0.4,0.2,0.1,0.9,0.7c0.7,0.6,1.6,1,1.6,1
										C611.5,573.6,611.9,573.1,611.9,573.1z"/>
									<path class="st48" d="M619.7,580.3c0,0,0.8,0.6,1.2,1c0.4,0.5,0.5,0.5,0.6,0.8c0.2,0.3,0.9,1.5,1.1,1.6
										c0.2,0.2-0.2,0.8,0,1s0.3,0.2,0.7,0.3s0.7,0.4,2,0.7s1.2,0.2,1.2,0.2s-0.8-0.3-2.2-0.9c-1.5-0.5-0.9-1.1-0.9-1.1
										s0.9,0.2,1.8,0.9c0.9,0.6,2.7,0.2,2.6,0.1c-0.1-0.1-1.1-0.3-1.8-0.5s-1.7-0.7-2.4-1.2c-0.8-0.6-0.1-0.4,0.4-0.1
										c0.5,0.2,1,0.4,1.9,1s0.9,0,1.6,0c0.3,0-1-0.6-1.6-0.7c-0.7-0.1-1.3-0.9-1.3-0.9s0.9,0.2,1.6,0.5c0.7,0.3,2.3,1,2.3,1
										l-0.6-0.4c0,0-0.8-0.2-2-1.2s-0.5-0.2-1.3-0.5s-1.1-0.2-1.8-0.5c-0.7-0.4-0.2-0.1-0.9-0.7s-1.6-1-1.6-1
										C620.1,579.8,619.7,580.3,619.7,580.3z"/>
									<path class="st48" d="M611.1,575.5c0,0-1,0-1.5-0.2c-0.6-0.2-0.7-0.2-1-0.4s-1.5-0.8-1.8-0.9c-0.3-0.1-0.2-0.8-0.5-0.9
										c-0.3-0.1-0.4,0-0.8,0.1c-0.5,0.1-0.8,0.1-2.1,0.5c-1.3,0.3-1.1,0.4-1.1,0.4s0.9-0.1,2.4-0.4c1.5-0.3,1.4,0.5,1.4,0.5
										s-0.9,0.2-2,0.1c-1-0.1-2.4,1.2-2.3,1.2c0.1,0,1.1-0.3,1.8-0.5s1.8-0.2,2.7-0.1c1,0.1,0.2,0.3-0.3,0.3
										c-0.6,0-1.1,0.2-2.2,0.1c-1.1-0.1-0.8,0.4-1.4,0.8c-0.3,0.1,1.1,0,1.8-0.2c0.6-0.2,1.6,0.1,1.6,0.1s-0.8,0.3-1.6,0.4
										c-0.8,0.1-2.5,0.3-2.5,0.3h0.8c0,0,0.8-0.2,2.4,0c1.5,0.2,0.6,0,1.3-0.2c0.8-0.2,1-0.4,1.8-0.5s0.2,0,1.1,0.2
										c0.9,0.2,1.9,0,1.9,0C610.9,576,611.1,575.5,611.1,575.5z"/>
									<path class="st48" d="M621.2,577.6c0,0,1,0.1,1.5,0.2c0.6,0.2,0.7,0.2,1,0.4s1.5,0.8,1.8,0.9c0.3,0.1,0.2,0.8,0.5,0.9
										c0.3,0.1,0.4,0,0.8-0.1s0.8-0.1,2.1-0.5c1.3-0.3,1.1-0.4,1.1-0.4s-0.9,0.1-2.4,0.4c-1.5,0.3-1.4-0.5-1.4-0.5s0.9-0.2,2-0.1
										c1,0.1,2.4-1.2,2.3-1.2c-0.1,0-1.1,0.3-1.8,0.5s-1.8,0.2-2.7,0.1s-0.2-0.3,0.3-0.3c0.6,0,1.1-0.2,2.2-0.1
										c1.1,0.1,0.8-0.4,1.4-0.8c0.3-0.1-1.1,0-1.8,0.2c-0.6,0.2-1.6-0.1-1.6-0.1s0.8-0.3,1.6-0.4c0.8-0.1,2.5-0.3,2.5-0.3h-0.8
										c0,0-0.8,0.2-2.4,0c-1.5-0.2-0.6,0-1.3,0.2c-0.8,0.2-1,0.4-1.8,0.5s-0.2,0-1.1-0.2c-0.9-0.2-1.9,0-1.9,0
										C621.5,577.1,621.2,577.6,621.2,577.6z"/>
								</g>
								<ellipse cx="615.7" cy="576.3" rx="5.5" ry="5.5"/>
								<g>
									<path class="st49" d="M617.1,575.3c0.8-2.3,1.6-2.7,1-4.3s-3-1-3-1l-1.7,5.3C613.5,575.2,616.3,577.5,617.1,575.3z"/>
									<path class="st50" d="M611.8,575.2l-4.2,3.5c0,0-0.8-1.3-0.5-3.4c0.4-2.1,3.5-7.1,3.5-7.1l4.4,1.1L611.8,575.2z"/>
								</g>
							</g>
						</g>
					</g>
				</g>
			</g>
		</g>
		<g>
			<g>
				<g>
					<g>
						<g>
							<defs>
								<path id="SVGID_5_" d="M619,559.5c-21-0.6-30.7,21.7-31.9,22.8c-1.2,1-8,3.4-7.7,5.1c0.3,1.8,3.3,1.3,7.2,0.8
									c3.9-0.6,13.5,1.6,13.5,1.6c21.5,4.4,34.5-4.5,38.8-5.1c4.4-0.6,4.5-2.8,9.6-7.2c5.2-4.3,2.4-5.3,2.4-5.3
									S640,560.1,619,559.5z"/>
							</defs>
							<clipPath id="SVGID_6_">
								<use xlink:href="#SVGID_5_"  style="overflow:visible;"/>
							</clipPath>
							<g class="st52">
								<circle class="st44" cx="615.2" cy="575.8" r="17.8"/>
								<path class="st45" d="M597.5,578.4c1.4,9.8,10.4,16.5,20.2,15.1s16.5-10.4,15.1-20.2s-10.4-16.5-20.2-15.1
									S596.1,568.6,597.5,578.4z M600.6,578.6c-1.4-2.3,0.3-5,0.6-7.8s1.5-2.3,2.8-4.6c1.4-2.3,3.4-3.2,7-4.8s9.4-0.3,9.4-0.3
									c1.4-0.2,2,2.2,3.6,3.3c1.5,1.2,2.1,2.5,3.7,4c1.6,1.5,0.5,1,1.5,2.8s-0.2,1.2,0.3,4.3c0.4,3.1-1.9,8.3-2.7,10
									s-2.7,3.7-5.3,4.8s-2.5-0.3-6.4-0.8s-6.2-1.6-7.2-1.7c-1.1-0.2-1.5-0.9-3.8-2.2C601.8,584.1,602,580.9,600.6,578.6z"/>
								<path class="st46" d="M600.4,578.8c-2.3,0.2,3.9-1,3.9-1C606.8,577.8,602.7,578.6,600.4,578.8z"/>
								<path class="st46" d="M626.4,575.1c-2.3,0.2,3.9-1,3.9-1C632.7,574,628.7,574.9,626.4,575.1z"/>
								<path class="st46" d="M600.7,580.2c-2.4,0.3,3.8-1.4,3.8-1.4C606.9,578.5,603,579.8,600.7,580.2z"/>
								<path class="st46" d="M626.2,574.1c-2.4,0.3,3.8-1.4,3.8-1.4C632.5,572.5,628.5,573.7,626.2,574.1z"/>
								<path class="st46" d="M601,581.5c-2.3,0.6,3.7-1.8,3.7-1.8C607.1,579.2,603.3,580.9,601,581.5z"/>
								<path class="st46" d="M625.9,573.1c-2.3,0.6,3.7-1.8,3.7-1.8C632,571,628.2,572.6,625.9,573.1z"/>
								<path class="st46" d="M601.5,582.7c-2.2,0.8,3.5-2.1,3.5-2.1C607.4,580,603.8,582,601.5,582.7z"/>
								<path class="st46" d="M625.6,572.3c-2.2,0.8,3.5-2.1,3.5-2.1C631.5,569.5,627.8,571.5,625.6,572.3z"/>
								<path class="st46" d="M602.2,584c-2.1,1,3.3-2.4,3.3-2.4C607.8,580.7,604.3,583,602.2,584z"/>
								<path class="st46" d="M625.2,571.3c-2.1,1,3.3-2.4,3.3-2.4C630.9,568.1,627.3,570.4,625.2,571.3z"/>
								<path class="st46" d="M602.8,585.1c-2,1.2,3.1-2.7,3.1-2.7C608.2,581.4,604.9,584,602.8,585.1z"/>
								<path class="st46" d="M624.7,570.5c-2,1.2,3.1-2.7,3.1-2.7C630,566.8,626.7,569.4,624.7,570.5z"/>
								<path class="st46" d="M603.7,586.2c-2,1.4,2.9-3,2.9-3C608.7,582,605.7,584.9,603.7,586.2z"/>
								<path class="st46" d="M624.1,569.7c-2,1.4,2.9-3,2.9-3C629.1,565.5,626.1,568.4,624.1,569.7z"/>
								<path class="st46" d="M604.7,587.2c-1.9,1.5,2.6-3.2,2.6-3.2C609.2,582.6,606.5,585.7,604.7,587.2z"/>
								<path class="st46" d="M623.5,569c-1.8,1.5,2.6-3.2,2.6-3.2C628.1,564.3,625.3,567.4,623.5,569z"/>
								<path class="st46" d="M605.6,588.1c-1.7,1.7,2.3-3.4,2.3-3.4C609.8,583.1,607.3,586.4,605.6,588.1z"/>
								<path class="st46" d="M622.8,568.3c-1.7,1.7,2.3-3.4,2.3-3.4C626.9,563.3,624.5,566.6,622.8,568.3z"/>
								<path class="st46" d="M606.8,589c-1.5,1.8,1.9-3.6,1.9-3.6C610.4,583.6,608.3,587.2,606.8,589z"/>
								<path class="st46" d="M622,567.6c-1.5,1.8,1.9-3.6,1.9-3.6C625.7,562.3,623.6,565.8,622,567.6z"/>
								<path class="st46" d="M607.8,589.7c-1.4,1.9,1.7-3.8,1.7-3.8C611.1,584,609.3,587.7,607.8,589.7z"/>
								<path class="st46" d="M621.2,567.1c-1.4,1.9,1.7-3.8,1.7-3.8C624.4,561.4,622.6,565.2,621.2,567.1z"/>
								<path class="st46" d="M609.1,590.3c-1.2,2.1,1.3-3.9,1.3-3.9C611.7,584.4,610.3,588.3,609.1,590.3z"/>
								<path class="st46" d="M620.4,566.6c-1.2,2.1,1.3-3.9,1.3-3.9C623,560.7,621.6,564.5,620.4,566.6z"/>
								<path class="st46" d="M610.4,590.8c-1,2.1,1-4,1-4C612.5,584.7,611.4,588.7,610.4,590.8z"/>
								<path class="st46" d="M619.5,566.2c-1,2.1,1-4,1-4C621.6,560.1,620.5,564.1,619.5,566.2z"/>
								<path class="st46" d="M611.7,591.2c-0.8,2.3,0.6-4.1,0.6-4.1C613.2,584.9,612.4,589,611.7,591.2z"/>
								<path class="st46" d="M618.5,565.9c-0.8,2.3,0.6-4.1,0.6-4.1C620.1,559.6,619.3,563.6,618.5,565.9z"/>
								<path class="st46" d="M613,591.5c-0.6,2.3,0.2-4.1,0.2-4.1C614,585.1,613.6,589.2,613,591.5z"/>
								<path class="st46" d="M617.6,565.7c-0.6,2.3,0.2-4.1,0.2-4.1C618.6,559.2,618.2,563.4,617.6,565.7z"/>
								<path class="st46" d="M614.4,591.6c-0.4,2.4-0.1-4.1-0.1-4.1C614.8,585.2,614.8,589.3,614.4,591.6z"/>
								<path class="st46" d="M616.6,565.5c-0.4,2.4-0.1-4.1-0.1-4.1C617,559,617,563.2,616.6,565.5z"/>
								<path class="st46" d="M615.7,591.7c-0.2,2.4-0.5-4.1-0.5-4.1C615.6,585.2,615.9,589.4,615.7,591.7z"/>
								<path class="st46" d="M615.6,565.4c-0.2,2.4-0.5-4.1-0.5-4.1C615.5,558.9,615.8,563.1,615.6,565.4z"/>
								<path class="st46" d="M617.1,591.6c0,2.4-0.9-4-0.9-4C616.4,585.1,617.1,589.2,617.1,591.6z"/>
								<path class="st46" d="M614.6,565.5c0,2.4-0.9-4-0.9-4C613.9,559,614.6,563.1,614.6,565.5z"/>
								<path class="st46" d="M618.4,591.3c0.2,2.4-1.2-3.9-1.2-3.9C617.1,585,618.2,589.1,618.4,591.3z"/>
								<path class="st46" d="M613.7,565.6c0.2,2.4-1.2-3.9-1.2-3.9C612.3,559.2,613.5,563.2,613.7,565.6z"/>
								<path class="st46" d="M619.8,591c0.4,2.3-1.6-3.8-1.6-3.8C617.9,584.9,619.4,588.8,619.8,591z"/>
								<path class="st46" d="M612.7,565.8c0.4,2.3-1.6-3.8-1.6-3.8C610.8,559.6,612.3,563.4,612.7,565.8z"/>
								<path class="st46" d="M621.1,590.6c0.6,2.3-1.9-3.6-1.9-3.6C618.6,584.6,620.4,588.4,621.1,590.6z"/>
								<path class="st46" d="M611.8,566c0.6,2.3-1.9-3.6-1.9-3.6C609.3,560.1,611.2,563.8,611.8,566z"/>
								<path class="st46" d="M622.3,590.1c0.9,2.2-2.2-3.5-2.2-3.5C619.3,584.3,621.5,587.9,622.3,590.1z"/>
								<path class="st46" d="M610.9,566.5c0.9,2.2-2.2-3.5-2.2-3.5C607.9,560.7,610,564.3,610.9,566.5z"/>
								<path class="st46" d="M623.5,589.4c1,2.1-2.5-3.2-2.5-3.2C620.1,583.9,622.5,587.3,623.5,589.4z"/>
								<path class="st46" d="M610,566.9c1,2.1-2.6-3.2-2.6-3.2C606.5,561.4,608.9,564.8,610,566.9z"/>
								<path class="st46" d="M624.6,588.7c1.3,2-2.8-3-2.8-3C620.7,583.5,623.4,586.6,624.6,588.7z"/>
								<path class="st46" d="M609.1,567.5c1.3,2-2.8-3-2.8-3C605.2,562.3,607.9,565.4,609.1,567.5z"/>
								<path class="st46" d="M624.6,588.7c1.3,2-2.8-3-2.8-3C620.7,583.5,623.4,586.6,624.6,588.7z"/>
								<path class="st46" d="M609.1,567.5c1.3,2-2.8-3-2.8-3C605.2,562.3,607.9,565.4,609.1,567.5z"/>
								<path class="st46" d="M625.7,587.8c1.4,1.9-3.1-2.7-3.1-2.7C621.3,583,624.3,585.9,625.7,587.8z"/>
								<path class="st46" d="M608.4,568c1.4,1.9-3.1-2.7-3.1-2.7C604,563.2,607,566.1,608.4,568z"/>
								<path class="st46" d="M626.6,586.8c1.6,1.8-3.3-2.4-3.3-2.4C621.9,582.4,625.1,585,626.6,586.8z"/>
								<path class="st46" d="M607.7,568.7c1.6,1.8-3.3-2.5-3.3-2.5C602.8,564.3,606.1,566.9,607.7,568.7z"/>
								<path class="st46" d="M627.6,585.7c1.7,1.6-3.5-2.2-3.5-2.2C622.4,581.8,625.8,584.1,627.6,585.7z"/>
								<path class="st46" d="M607,569.4c1.7,1.6-3.5-2.2-3.5-2.2C601.8,565.5,605.3,567.8,607,569.4z"/>
								<path class="st46" d="M628.3,584.7c1.8,1.4-3.7-1.8-3.7-1.8C622.9,581.2,626.5,583.2,628.3,584.7z"/>
								<path class="st46" d="M606.4,570.2c1.8,1.4-3.7-1.8-3.7-1.8C600.9,566.8,604.5,568.8,606.4,570.2z"/>
								<path class="st46" d="M629,583.5c2,1.3-3.8-1.5-3.8-1.5C623.2,580.5,627,582.1,629,583.5z"/>
								<path class="st46" d="M605.9,571c2,1.3-3.8-1.5-3.8-1.5C600.1,568.1,603.9,569.8,605.9,571z"/>
								<path class="st46" d="M629.6,582.2c2,1.1-3.9-1.1-3.9-1.1C623.5,579.8,627.6,581.1,629.6,582.2z"/>
								<path class="st46" d="M605.5,571.9c2,1.1-3.9-1.1-3.9-1.1C599.4,569.5,603.4,570.8,605.5,571.9z"/>
								<path class="st46" d="M630,580.9c2.2,0.9-4-0.8-4-0.8C623.8,579.1,627.9,580,630,580.9z"/>
								<path class="st46" d="M605,572.8c2.2,0.9-4-0.8-4-0.8C598.8,571,602.9,571.9,605,572.8z"/>
								<path class="st46" d="M630.4,579.6c2.3,0.8-4.1-0.4-4.1-0.4C624,578.3,628.2,578.9,630.4,579.6z"/>
								<path class="st46" d="M604.8,573.8c2.3,0.8-4.1-0.4-4.1-0.4C598.4,572.5,602.6,573.1,604.8,573.8z"/>
								<path class="st46" d="M630.6,578.2c2.3,0.5-4.1,0-4.1,0C624.1,577.5,628.3,577.8,630.6,578.2z"/>
								<path class="st46" d="M604.6,574.7c2.3,0.5-4.1,0-4.1,0C598.1,574,602.3,574.2,604.6,574.7z"/>
								<path class="st46" d="M630.7,576.9c2.4,0.3-4.1,0.3-4.1,0.3C624.2,576.8,628.4,576.6,630.7,576.9z"/>
								<path class="st46" d="M604.5,575.7c2.4,0.3-4.1,0.3-4.1,0.3C598,575.6,602.2,575.4,604.5,575.7z"/>
								<path class="st46" d="M630.7,575.5c2.4,0.1-4,0.7-4,0.7C624.2,576,628.3,575.4,630.7,575.5z"/>
								<path class="st46" d="M604.5,576.7c2.4,0.1-4,0.7-4,0.7C598,577.1,602.1,576.6,604.5,576.7z"/>
								<g class="st47">
									<path class="st48" d="M621,574.7c0,0,0.9-0.3,1.5-0.4c0.7-0.1,0.7-0.1,1.1-0.1c0.4,0.1,1.7,0.1,2,0
										c0.4-0.1,0.5,0.7,0.9,0.6c0.4-0.1,0.3-0.2,0.7-0.4s0.7-0.4,1.7-1.3c1-0.9,0.8-0.9,0.8-0.9s-0.8,0.4-2,1.4
										c-1.2,0.9-1.5,0.1-1.5,0.1s0.7-0.7,1.7-1s1.7-2.1,1.6-2.1c-0.1,0-0.9,0.8-1.4,1.3s-1.5,1-2.4,1.3s-0.3-0.2,0.1-0.4
										c0.5-0.3,1-0.7,1.9-1c1-0.4,0.6-0.7,1-1.3c0.2-0.2-1.1,0.5-1.5,1s-1.5,0.5-1.5,0.5s0.6-0.7,1.3-1.1
										c0.7-0.4,2.1-1.4,2.1-1.4l-0.7,0.3c0,0-0.7,0.5-2.2,0.9s-0.5,0.2-1.2,0.8c-0.6,0.6-0.7,0.9-1.4,1.3c-0.7,0.4-0.2,0-1.1,0.3
										c-0.9,0.2-1.8,0.8-1.8,0.8C621,574,621,574.7,621,574.7z"/>
									<path class="st48" d="M611,575.9c0,0-0.8,0.4-1.4,0.6c-0.6,0.1-0.7,0.2-1,0.2c-0.4,0-1.7,0.2-2,0.2
										c-0.3,0.1-0.6-0.6-0.9-0.5c-0.3,0.1-0.3,0.2-0.6,0.5s-0.6,0.5-1.5,1.5s-0.7,1-0.7,1s0.7-0.5,1.8-1.6s1.4-0.3,1.4-0.3
										s-0.6,0.8-1.6,1.2c-1,0.5-1.4,2.3-1.3,2.3c0.1-0.1,0.7-0.9,1.2-1.4s1.4-1.2,2.2-1.6c0.9-0.5,0.4,0.1-0.1,0.5
										c-0.4,0.3-0.8,0.8-1.8,1.3s-0.5,0.8-0.8,1.4c-0.2,0.3,1-0.6,1.4-1.2c0.4-0.5,1.4-0.7,1.4-0.7s-0.6,0.7-1.2,1.2
										c-0.6,0.5-1.9,1.7-1.9,1.7l0.7-0.4c0,0,0.6-0.6,2-1.3s0.4-0.4,1-1s0.6-1,1.2-1.4c0.6-0.5,0.2-0.1,1.1-0.4
										c0.8-0.4,1.6-1,1.6-1C611.1,576.5,611,575.9,611,575.9z"/>
									<path class="st48" d="M615.6,571c0,0-0.1-1-0.1-1.6s0-0.7,0.2-1s0.4-1.6,0.5-1.9c0-0.3,0.8-0.4,0.8-0.7s-0.1-0.3-0.3-0.7
										s-0.3-0.7-0.8-2c-0.6-1.2-0.6-1-0.6-1s0.2,0.9,0.8,2.2c0.7,1.4-0.2,1.4-0.2,1.4s-0.4-0.9-0.6-1.9c-0.2-1.1-1.7-2.1-1.7-2
										s0.5,0.9,0.9,1.6c0.4,0.7,0.6,1.7,0.7,2.7c0.1,1-0.2,0.3-0.4-0.2c-0.1-0.5-0.4-1.1-0.6-2.1c-0.2-1.1-0.6-0.7-1-1.2
										c-0.2-0.3,0.2,1.1,0.6,1.7c0.3,0.6,0.2,1.6,0.2,1.6s-0.5-0.8-0.7-1.5c-0.3-0.7-0.8-2.3-0.8-2.3l0.2,0.7
										c0,0,0.4,0.8,0.4,2.3c0.1,1.6,0.2,0.5,0.5,1.3c0.4,0.7,0.7,0.9,0.9,1.6c0.3,0.8,0,0.2,0,1.2c0,0.9,0.4,1.9,0.4,1.9
										C615.1,571,615.6,571,615.6,571z"/>
									<path class="st48" d="M615.8,581.6c0,0,0.1,1,0.1,1.6s0,0.7-0.2,1s-0.4,1.6-0.5,1.9c0,0.3-0.8,0.4-0.8,0.7s0.1,0.3,0.3,0.7
										s0.3,0.7,0.8,2c0.6,1.2,0.6,1,0.6,1s-0.2-0.9-0.8-2.2c-0.7-1.4,0.2-1.4,0.2-1.4s0.5,0.9,0.6,1.9c0.2,1.1,1.7,2.1,1.7,2
										s-0.5-0.9-0.9-1.6s-0.6-1.7-0.7-2.7s0.2-0.3,0.4,0.2c0.1,0.5,0.4,1.1,0.6,2.1c0.1,1,0.6,0.7,1,1.2c0.2,0.3-0.2-1.1-0.6-1.7
										c-0.3-0.6-0.2-1.6-0.2-1.6s0.5,0.8,0.7,1.5c0.3,0.7,0.8,2.3,0.8,2.3l-0.2-0.7c0,0-0.4-0.8-0.4-2.3
										c-0.1-1.6-0.2-0.5-0.5-1.3c-0.4-0.7-0.7-0.9-0.9-1.6c-0.3-0.8,0-0.2,0-1.2c0-0.9-0.4-1.9-0.4-1.9
										C616.3,581.7,615.8,581.6,615.8,581.6z"/>
									<path class="st48" d="M619.8,572.7c0,0,0.7-0.7,1.2-1s0.6-0.4,0.9-0.5c0.3-0.1,1.5-0.7,1.8-0.8c0.2-0.2,0.8,0.4,1,0.2
										s0.2-0.2,0.4-0.6c0.2-0.4,0.5-0.6,1-1.9c0.5-1.2,0.4-1.1,0.4-1.1s-0.5,0.7-1.2,2.1c-0.7,1.3-1.3,0.7-1.3,0.7
										s0.4-0.8,1.1-1.6c0.8-0.8,0.6-2.6,0.5-2.6c0,0.1-0.4,1-0.7,1.7s-0.9,1.6-1.6,2.2c-0.7,0.7-0.4,0-0.1-0.5
										c0.3-0.5,0.6-1.1,1.3-1.8c0.7-0.8,0.1-0.8,0.3-1.6c0.1-0.3-0.8,0.9-1,1.5c-0.2,0.7-1.1,1.1-1.1,1.1s0.3-0.9,0.8-1.5
										c0.4-0.6,1.3-2.1,1.3-2.1l-0.5,0.5c0,0-0.4,0.7-1.5,1.8c-1.1,1-0.3,0.5-0.7,1.2s-0.3,1.1-0.7,1.7c-0.5,0.6-0.1,0.1-0.9,0.7
										c-0.7,0.6-1.3,1.5-1.3,1.5C619.5,572.2,619.8,572.7,619.8,572.7z"/>
									<path class="st48" d="M611.4,578.4c0,0-0.6,0.8-1,1.2c-0.5,0.4-0.5,0.5-0.8,0.6s-1.5,0.9-1.6,1.1c-0.2,0.2-0.8-0.2-1-0.1
										c-0.2,0.2-0.1,0.3-0.3,0.7s-0.4,0.7-0.7,2c-0.4,1.3-0.2,1.2-0.2,1.2s0.3-0.8,0.9-2.2c0.5-1.5,1.1-0.9,1.1-0.9
										s-0.2,0.9-0.9,1.8c-0.6,0.9-0.2,2.7-0.1,2.6c0.1-0.1,0.3-1.1,0.5-1.8s0.7-1.6,1.3-2.4c0.6-0.8,0.3-0.1,0.1,0.4
										s-0.4,1-1.1,1.9c-0.6,0.8,0,0.8-0.1,1.6c0,0.3,0.6-1,0.7-1.6c0.1-0.7,0.9-1.3,0.9-1.3s-0.2,0.9-0.5,1.6
										c-0.4,0.7-1,2.3-1,2.3l0.4-0.6c0,0,0.3-0.8,1.3-2s0.3-0.5,0.5-1.3s0.1-1.1,0.5-1.8s0.1-0.2,0.8-0.9c0.6-0.7,1-1.6,1-1.6
										C611.8,578.8,611.4,578.4,611.4,578.4z"/>
									<path class="st48" d="M613.4,571.8c0,0-0.5-0.8-0.8-1.4c-0.2-0.6-0.3-0.7-0.3-1c0-0.4-0.3-1.6-0.4-1.9
										c-0.1-0.3,0.5-0.6,0.4-0.9c-0.1-0.2-0.2-0.2-0.5-0.5c-0.4-0.3-0.5-0.5-1.6-1.4s-1-0.6-1-0.6s0.6,0.6,1.7,1.6
										c1.2,1,0.5,1.4,0.5,1.4s-0.7-0.6-1.3-1.4s-2.4-1.1-2.4-1c0.1,0.1,0.9,0.6,1.5,1.1c0.6,0.4,1.3,1.3,1.8,2
										c0.6,0.8-0.1,0.4-0.5,0s-0.9-0.7-1.4-1.6c-0.5-0.9-0.8-0.3-1.5-0.7c-0.3-0.1,0.7,1,1.3,1.3s0.9,1.3,0.9,1.3s-0.8-0.5-1.3-1
										c-0.5-0.6-1.8-1.7-1.8-1.7l0.4,0.6c0,0,0.6,0.6,1.4,1.9c0.8,1.4,0.4,0.4,1.1,0.9c0.6,0.5,1,0.5,1.5,1.1s0.1,0.2,0.5,1
										c0.5,0.8,1.2,1.5,1.2,1.5C612.9,572.1,613.4,571.8,613.4,571.8z"/>
									<path class="st48" d="M618.2,581.4c0,0,0.5,0.8,0.8,1.4c0.2,0.6,0.3,0.7,0.3,1c0,0.4,0.3,1.6,0.4,1.9
										c0.1,0.3-0.5,0.6-0.4,0.9c0.1,0.2,0.2,0.2,0.5,0.5s0.5,0.5,1.6,1.4c1.1,0.8,1,0.6,1,0.6s-0.6-0.6-1.7-1.6
										c-1.2-1-0.5-1.4-0.5-1.4s0.7,0.6,1.3,1.4c0.6,0.9,2.4,1.1,2.4,1c-0.1-0.1-0.9-0.6-1.5-1.1c-0.6-0.4-1.3-1.3-1.8-2
										c-0.6-0.8,0.1-0.4,0.5,0s0.9,0.7,1.4,1.6c0.5,0.9,0.8,0.3,1.5,0.7c0.3,0.1-0.7-1-1.3-1.3s-0.9-1.3-0.9-1.3s0.8,0.5,1.3,1
										c0.5,0.6,1.8,1.7,1.8,1.7l-0.4-0.6c0,0-0.6-0.6-1.4-1.9c-0.8-1.4-0.4-0.4-1.1-0.9c-0.6-0.5-1-0.5-1.5-1.1s-0.1-0.2-0.5-1
										c-0.5-0.8-1.2-1.5-1.2-1.5C618.6,581.1,618.2,581.4,618.2,581.4z"/>
									<path class="st48" d="M618.2,571.7c0,0,0.4-0.9,0.7-1.4c0.4-0.5,0.4-0.6,0.7-0.8c0.2-0.2,1.2-1.2,1.4-1.5
										c0.2-0.2,0.8,0.1,1-0.2s0.1-0.3,0.1-0.8c0.1-0.5,0.1-0.8,0.2-2.1c0.1-1.3-0.1-1.2-0.1-1.2s-0.2,0.9-0.4,2.4
										s-0.9,1.2-0.9,1.2s0.1-1,0.5-2s-0.4-2.7-0.5-2.6c0,0.1,0,1.1,0,1.8s-0.3,1.7-0.7,2.7c-0.3,0.9-0.3,0.2-0.2-0.4
										c0.1-0.6,0.2-1.2,0.6-2.1c0.4-0.9-0.2-0.8-0.3-1.5c-0.1-0.3-0.4,1.1-0.3,1.7c0,0.7-0.6,1.5-0.6,1.5s0-0.9,0.1-1.7
										s0.4-2.4,0.4-2.4l-0.3,0.7c0,0,0,0.8-0.8,2.2c-0.7,1.4-0.1,0.6-0.2,1.4c0,0.8,0.1,1.1,0,1.8c-0.2,0.8-0.1,0.2-0.6,1
										c-0.4,0.8-0.6,1.8-0.6,1.8C617.6,571.2,618.2,571.7,618.2,571.7z"/>
									<path class="st48" d="M612.3,579.9c0,0-0.2,0.9-0.5,1.5s-0.4,0.7-0.5,0.9c-0.2,0.2-1,1.4-1.1,1.6c-0.1,0.3-0.9,0.1-1,0.3
										c-0.1,0.3,0,0.4,0,0.8c0,0.5,0,0.8,0.1,2.1s0.2,1.1,0.2,1.1s0.1-0.9,0-2.4s0.7-1.3,0.7-1.3s0.1,1-0.2,2s0.8,2.6,0.8,2.5
										s-0.1-1.1-0.2-1.9s0.1-1.8,0.3-2.7s0.3-0.2,0.3,0.4c0,0.6,0,1.2-0.3,2.2s0.3,0.8,0.5,1.5c0.1,0.3,0.2-1.1,0.1-1.8
										c-0.1-0.6,0.4-1.5,0.4-1.5s0.1,0.9,0.1,1.7s-0.1,2.5-0.1,2.5l0.1-0.8c0,0-0.1-0.9,0.4-2.3c0.5-1.5,0-0.6,0-1.4
										c-0.1-0.8-0.3-1-0.2-1.9c0-0.8,0.1-0.2,0.4-1.1c0.3-0.9,0.3-1.9,0.3-1.9C612.9,580.2,612.3,579.9,612.3,579.9z"/>
									<path class="st48" d="M611.9,573.1c0,0-0.7-0.6-1.2-1c-0.4-0.5-0.5-0.5-0.6-0.8c-0.2-0.3-0.9-1.5-1.1-1.6
										c-0.2-0.2,0.2-0.8,0-1s-0.3-0.2-0.7-0.3s-0.7-0.4-2-0.7s-1.2-0.2-1.2-0.2s0.8,0.3,2.2,0.9c1.4,0.5,0.9,1.1,0.9,1.1
										s-0.9-0.2-1.8-0.9c-0.9-0.6-2.7-0.2-2.6-0.1c0.1,0.1,1.1,0.3,1.8,0.5s1.7,0.7,2.4,1.2c0.8,0.6,0.1,0.4-0.4,0.1
										c-0.5-0.2-1-0.4-1.9-1s-0.9,0-1.6,0c-0.3,0,1,0.6,1.6,0.7c0.7,0.1,1.3,0.9,1.3,0.9s-0.9-0.2-1.6-0.5s-2.3-1-2.3-1l0.6,0.4
										c0,0,0.8,0.2,2,1.2s0.5,0.3,1.3,0.5c0.8,0.3,1.1,0.2,1.8,0.5c0.7,0.4,0.2,0.1,0.9,0.7c0.7,0.6,1.6,1,1.6,1
										C611.5,573.6,611.9,573.1,611.9,573.1z"/>
									<path class="st48" d="M619.7,580.3c0,0,0.8,0.6,1.2,1c0.4,0.5,0.5,0.5,0.6,0.8c0.2,0.3,0.9,1.5,1.1,1.6
										c0.2,0.2-0.2,0.8,0,1s0.3,0.2,0.7,0.3s0.7,0.4,2,0.7s1.2,0.2,1.2,0.2s-0.8-0.3-2.2-0.9c-1.5-0.5-0.9-1.1-0.9-1.1
										s0.9,0.2,1.8,0.9c0.9,0.6,2.7,0.2,2.6,0.1c-0.1-0.1-1.1-0.3-1.8-0.5s-1.7-0.7-2.4-1.2c-0.8-0.6-0.1-0.4,0.4-0.1
										c0.5,0.2,1,0.4,1.9,1s0.9,0,1.6,0c0.3,0-1-0.6-1.6-0.7c-0.7-0.1-1.3-0.9-1.3-0.9s0.9,0.2,1.6,0.5c0.7,0.3,2.3,1,2.3,1
										l-0.6-0.4c0,0-0.8-0.2-2-1.2s-0.5-0.2-1.3-0.5s-1.1-0.2-1.8-0.5c-0.7-0.4-0.2-0.1-0.9-0.7s-1.6-1-1.6-1
										C620.1,579.8,619.7,580.3,619.7,580.3z"/>
									<path class="st48" d="M611.1,575.5c0,0-1,0-1.5-0.2c-0.6-0.2-0.7-0.2-1-0.4s-1.5-0.8-1.8-0.9c-0.3-0.1-0.2-0.8-0.5-0.9
										c-0.3-0.1-0.4,0-0.8,0.1c-0.5,0.1-0.8,0.1-2.1,0.5c-1.3,0.3-1.1,0.4-1.1,0.4s0.9-0.1,2.4-0.4c1.5-0.3,1.4,0.5,1.4,0.5
										s-0.9,0.2-2,0.1c-1-0.1-2.4,1.2-2.3,1.2c0.1,0,1.1-0.3,1.8-0.5s1.8-0.2,2.7-0.1c1,0.1,0.2,0.3-0.3,0.3
										c-0.6,0-1.1,0.2-2.2,0.1c-1.1-0.1-0.8,0.4-1.4,0.8c-0.3,0.1,1.1,0,1.8-0.2c0.6-0.2,1.6,0.1,1.6,0.1s-0.8,0.3-1.6,0.4
										c-0.8,0.1-2.5,0.3-2.5,0.3h0.8c0,0,0.8-0.2,2.4,0c1.5,0.2,0.6,0,1.3-0.2c0.8-0.2,1-0.4,1.8-0.5s0.2,0,1.1,0.2
										c0.9,0.2,1.9,0,1.9,0C610.9,576,611.1,575.5,611.1,575.5z"/>
									<path class="st48" d="M621.2,577.6c0,0,1,0.1,1.5,0.2c0.6,0.2,0.7,0.2,1,0.4s1.5,0.8,1.8,0.9c0.3,0.1,0.2,0.8,0.5,0.9
										c0.3,0.1,0.4,0,0.8-0.1s0.8-0.1,2.1-0.5c1.3-0.3,1.1-0.4,1.1-0.4s-0.9,0.1-2.4,0.4c-1.5,0.3-1.4-0.5-1.4-0.5s0.9-0.2,2-0.1
										c1,0.1,2.4-1.2,2.3-1.2c-0.1,0-1.1,0.3-1.8,0.5s-1.8,0.2-2.7,0.1s-0.2-0.3,0.3-0.3c0.6,0,1.1-0.2,2.2-0.1
										c1.1,0.1,0.8-0.4,1.4-0.8c0.3-0.1-1.1,0-1.8,0.2c-0.6,0.2-1.6-0.1-1.6-0.1s0.8-0.3,1.6-0.4c0.8-0.1,2.5-0.3,2.5-0.3h-0.8
										c0,0-0.8,0.2-2.4,0c-1.5-0.2-0.6,0-1.3,0.2c-0.8,0.2-1,0.4-1.8,0.5s-0.2,0-1.1-0.2c-0.9-0.2-1.9,0-1.9,0
										C621.5,577.1,621.2,577.6,621.2,577.6z"/>
								</g>
								<ellipse cx="615.7" cy="576.3" rx="5.5" ry="5.5"/>
								<g>
									<path class="st49" d="M620.4,574.8l-3.1-4.6c0,0-2.5,0-2.6,1.7c-0.1,1.8,0.8,1.9,2.2,3.9
										C618.3,577.9,620.4,574.8,620.4,574.8z"/>
									<path class="st50" d="M617.3,569.5l3.9-2.3c0,0,4.4,3.9,5.3,5.8c0.9,2,0.5,3.4,0.5,3.4l-5-2.1L617.3,569.5z"/>
								</g>
							</g>
						</g>
					</g>
				</g>
			</g>
		</g>
		<path class="st34" d="M587.1,582.3c-1.2,1-8,3.4-7.7,5.1c0.2,1.6,2.7,1.4,6.1,0.9C584,586.8,587.2,582.3,587.1,582.3z"/>
		<g>
			<path d="M614.4,560.1c1.5-0.2,3.1-0.3,4.7-0.3c10.7,0.3,18.8,3.7,23.7,6.5c5.3,3,8.1,6.1,8.1,6.1h0.1h0.1c0.1,0,0.5,0.1,0.5,0.6
				c0.1,0.5-0.2,1.7-3,4c-1.8,1.5-3,2.8-4,3.8c-1.8,1.9-2.8,2.9-5.5,3.3c-1.1,0.2-2.5,0.7-4.3,1.5c-3.4,1.4-8.6,3.4-15.2,4.3
				c-6.2,0.9-12.7,0.6-19.2-0.7c-0.4-0.1-9.8-2.2-13.7-1.6c-3.6,0.5-6.6,0.9-6.8-0.5c-0.1-0.9,3-2.4,4.9-3.3
				c1.3-0.6,2.3-1.1,2.7-1.5c0.2-0.2,0.5-0.6,1-1.6C591.2,576.3,599.5,562.3,614.4,560.1 M614.3,559.8c-17.7,2.5-26,21.5-27.2,22.5
				s-8,3.4-7.7,5.1c0.3,1.8,3.3,1.3,7.2,0.8s13.5,1.6,13.5,1.6c7.4,1.5,13.9,1.5,19.3,0.7c10.2-1.5,16.7-5.4,19.5-5.8
				c4.4-0.6,4.5-2.8,9.6-7.2c5.2-4.3,2.4-5.3,2.4-5.3s-11.1-12.2-32-12.8C617.4,559.5,615.8,559.6,614.3,559.8L614.3,559.8z"/>
		</g>
		<path class="st35" d="M575.8,529.5c-6.1,3.9-15,16.4-15,16.4"/>
		<path class="st35" d="M584.8,523.8c-5.6,1.3-20.5,21.6-20.5,21.6"/>
		<path class="st35" d="M592.1,522.3c-6.9,1.4-23.1,22-23.1,22"/>
		<path class="st35" d="M600,521.6c-8.7,1.2-23.2,20.7-23.2,20.7"/>
		<path class="st35" d="M605.8,521.7c-4.7,1.5-21.5,17.3-21.5,17.3"/>
		<path class="st35" d="M614.9,520.4c-8.2,1.6-15,10.1-15.9,10.3"/>
		<path class="st35" d="M629.3,517.9c-5.2,1.2-15.9,9.8-15.9,9.8"/>
		<path class="st35" d="M637.9,518.9c-4.8,0.7-17.3,10-17.3,10"/>
		<path class="st35" d="M642.5,520c-4.1-0.7-11.2,8.7-11.2,8.7"/>
		<path class="st35" d="M646,522.6c-3.9,0.6-8.8,6.6-8.8,6.6"/>
		<path class="st35" d="M653.3,524.2c-4.5-0.2-9.3,3.1-9.3,3.1"/>
		<path class="st35" d="M659.8,526.4c-2.3-0.1-9,2.6-9,2.6"/>
		<path class="st35" d="M573,528.2c-2.2,0.3-13.8,15.7-13.8,15.7"/>
		<path class="st35" d="M569,528.7c-3.8,1.4-10.6,13.1-10.6,13.1"/>
		<path class="st35" d="M565.6,529.2c-3.5,0.5-9.1,10.7-9.1,10.7"/>
		<path class="st35" d="M574.7,543.4"/>
		<path class="st35" d="M593.1,522.6c-5.6,1.3-19.3,20.5-19.3,20.5"/>
		<path class="st35" d="M602.2,521.3c-6.1,1.3-20.1,18-20.1,18"/>
		<path class="st35" d="M610.4,519.7c-2.7-0.1-15.1,12.4-15.1,12.4"/>
		<path class="st35" d="M620.1,519.1c-6.6,3.6-17.5,11.4-17.5,11.4"/>
		<path class="st35" d="M624.4,517.7c-1.8-0.2-16,12.1-16,12.1"/>
		<path class="st35" d="M632,518.4c-4.7,1.5-15.4,10.2-15.4,10.2"/>
		<path class="st35" d="M640.6,519.3c-5.2,0.7-12.2,7.5-12.2,7.5"/>
		<path class="st35" d="M643.5,521.2c-3.5,0.5-8,6.1-8,6.1"/>
		<path class="st35" d="M649.5,522.5c-2,1.2-6.9,4.6-6.9,4.6"/>
		<line class="st35" x1="656.4" y1="524.2" x2="648.4" y2="527.6"/>
		<path class="st35" d="M658.1,528.6c0,0,3.6-2.7,7.3-1.9"/>
		<path class="st36" d="M577.7,526.3c7.5-3.3,34.9-7.7,54.5-6.9c19.7,0.8,34,11.1,34,11.1c-41-10.1-72.6,1.9-72.6,1.9
			c-43.8,16.5-36.2,11-36.2,11C555.6,526,570.3,529.6,577.7,526.3z"/>
		<path class="st31" d="M640.5,544.9c-22.5-20.3-68.5,5.4-76.3,10.4c-7.7,5.1-3.7,24.1,5.8,12.5c9.4-11.6,35.2-17.9,53.5-20.6
			c18.3-2.6,30.4,19.7,38.6,21.6c8.3,1.9,6.3-2.2,6.3-2.2S662.9,565.3,640.5,544.9z"/>
		<path class="st53" d="M586.4,579.8c19.4-32.1,45-20.7,45-20.7s23.1,10.5,23.4,13.1c0.2,2.6,0.2,2.2-1.6,2.4
			c-1.8,0.3-7.9,9.9-13,11.3c-5.2,1.5-26.4,11.2-41.3,6.7"/>
		<path class="st15" d="M609.1,551.8c-17.7,0.7-23.2,10.8-19.7,15.2s18.4-9.6,26-11.2c7.6-1.5,25.8,10.4,31.7,13.5
			c5.8,3.2,7.3-1.1,6.7-2.3C647.7,553.4,626.7,551.1,609.1,551.8z"/>
		<path class="st38" d="M650,580.5c-35.7,23.8-61.6,10.6-68,6.6s-3.3-7.6-9.1-13.8c-5.8-6.3-9.6-4.9-9.8,9.4
			c-0.4,33.5,63.4,26.9,69,25.6c5.6-1.3-2.3-3.3-17.6-1.9s-24-9-24-9l14.4,1.1c27.6,3.2,53-18.2,54.1-19.3c1.2-1,9.6-0.9,13.8-3.3
			c4.1-2.4-11.4-5.5-11.4-5.5C651.2,570.1,650,580.5,650,580.5z"/>
		<path class="st35" d="M650.7,572.7c0,0,6-1.2,5.4-5.1"/>
		<path class="st35" d="M655.4,567.5c-0.3,4-5.7,3.6-5.7,3.6"/>
		<path class="st35" d="M654,566.4c0.1,4-5.6,3.6-5.6,3.6"/>
		<path class="st35" d="M651.7,565.8c-0.5,3.1-4,3.4-4,3.4"/>
		<path class="st35" d="M651.6,563.6c-0.2,2.7-4.8,5-4.8,5"/>
		<path class="st35" d="M650.6,561.5c0.3,1.8-5.2,6.3-5.2,6.3"/>
		<path class="st35" d="M649.1,559.9c0.3,2.2-5,7.1-5,7.1"/>
		<path class="st35" d="M646.8,559.4c-0.6,1.9-4.1,7-4.1,7"/>
		<path class="st35" d="M644.4,558.4c0.3,2.2-4.2,6.8-4.2,6.8"/>
		<path class="st35" d="M642.4,556.7c0.5,3.3-3.7,7.7-3.7,7.7"/>
		<path class="st35" d="M641.4,556.6c0.9,2.9-3.5,6.7-3.5,6.7"/>
		<path class="st35" d="M640.3,554.9c0.6,1.2-3.7,8.8-3.7,8.8"/>
		<path class="st35" d="M638.6,554.8c0.3,2.2-3.8,8.1-3.8,8.1"/>
		<path class="st35" d="M636.4,555.1c0.4,3.1-2.7,6.9-2.7,6.9"/>
		<path class="st35" d="M635.7,554.3c0.5,2.6-3,7.1-3,7.1"/>
		<path class="st35" d="M634.7,553.9c0.1,2.1-4.2,7.6-4.2,7.6"/>
		<path class="st35" d="M633,553.3c1.5,1.5-2.9,7.6-2.9,7.6"/>
		<path class="st35" d="M591.2,565.6c1,3.4,5,3.9,5,3.9"/>
		<path class="st35" d="M590.8,569.1c1.7,2,3.4,2.2,3.4,2.2"/>
		<path class="st35" d="M590.4,572.3c1,0.7,2.5,1.5,2.5,1.5"/>
		<path class="st35" d="M588.5,574.4c0.7,1.7,2.4,1.4,2.4,1.4"/>
		<path class="st35" d="M591.1,571.3c0.6,0.8,2.3,1,2.3,1"/>
		<path class="st35" d="M631.5,553.5c0.1,3.3-2.7,6.4-2.7,6.4"/>
		<path class="st35" d="M628.6,553.5c1.2,2-1.2,6.8-1.2,6.8"/>
		<path class="st35" d="M626.7,552.9c1.7,2-0.8,6.8-0.8,6.8"/>
		<path class="st35" d="M625.3,552.2c1.7,2-1.6,7.3-1.6,7.3"/>
		<path class="st35" d="M623,551.7c1.1,1.6-0.3,7.2-0.2,7.6"/>
		<path class="st35" d="M620.8,552.2c1.2,2.2-0.3,7.4-0.3,7.4"/>
		<path class="st35" d="M618.7,552.7c1.7,2.4,0,6.2,0,6.2"/>
		<path class="st35" d="M617.3,552.5c1,1.2,0.1,6.6,0.1,6.6"/>
		<path class="st35" d="M615.2,552.8c1.2,2,0.9,6.1,0.9,6.1"/>
		<path class="st35" d="M613.4,553.1c1.1,1.6,1.3,6.1,1.3,6.1"/>
		<path class="st35" d="M611.6,552.9c0.2,1.3,1.9,6.8,1.9,6.8"/>
		<path class="st35" d="M609.8,552.7c0.4,3,1.9,6.9,1.9,6.9"/>
		<path class="st35" d="M608.1,553.4c-0.1,2.7,2.2,6.3,2.2,6.3"/>
		<path class="st35" d="M606.2,555.4c1,3.4,2.9,4.9,2.9,4.9"/>
		<path class="st35" d="M603.7,557.1c0.4,2.6,4.1,4.4,4.1,4.4"/>
		<path class="st35" d="M602.3,559.1c0.3,1.8,3.3,3.6,3.3,3.6"/>
		<path class="st35" d="M599.4,558.1c0,3.1,4.3,5.2,4.3,5.2"/>
		<path class="st35" d="M598,560.1c0.7,1.7,4.6,4.3,4.6,4.3"/>
		<path class="st35" d="M596.4,561.6c1.2,2.1,4.1,3.4,4.1,3.4"/>
		<path class="st35" d="M594.9,563.7c0.7,1.7,3.6,3.5,3.6,3.5"/>
		<path class="st35" d="M592.9,565.3c0.7,1.7,4.4,3,4.4,3"/>
		<path class="st35" d="M602.5,557.7c0.3,2.2,3.7,3.9,3.7,3.9"/>
		<path class="st35" d="M604,555.7c-0.2,1.8,4.7,5.1,4.7,5.1"/>
		<path class="st35" d="M591.1,567.8c0.7,1.7,3.9,2.6,3.9,2.6"/>
		<path class="st35" d="M589.2,573.4c1.2,2,2.4,1.4,2.4,1.4"/>
		<path class="st35" d="M587.4,576.3c0.7,1.7,2.9,0.8,2.9,0.8"/>
		<path class="st35" d="M584.6,578.5c0.8,2.1,3.8,1.3,3.8,1.3"/>
		<path class="st35" d="M585.9,578.3c0.6,1.2,3.1,0,3.1,0"/>
		<path class="st35" d="M584.1,581.2c0.1,0.5,3.1,0,3.1,0"/>
		<path class="st35" d="M639.3,555.3c0.4,1.9-3.1,7.4-3.1,7.4"/>
		<path class="st35" d="M616,552.7c0.7,1.7,0.9,6.5,0.9,6.5"/>
		<path class="st35" d="M619.5,552.6c0.9,2.9,0.4,6.2,0.4,6.2"/>
		<path class="st35" d="M621.7,551.9c1.2,2,0.1,7.1,0.1,7.1"/>
		<path class="st35" d="M607,554.8c0.3,1.8,2.6,5.4,2.6,5.4"/>
		<path class="st9" d="M635.4,595.1c-11.2,5.3-44.2,4-40.2,8c4.1,4,16.3,2.7,42.3-0.5c25.9-3.2,22.8-21.3,22.8-21.3
			C658.1,572.5,646.6,589.8,635.4,595.1z"/>
		<path class="st39" d="M566.5,570.4c0,0,1.4-0.8,3-1.9c0.2-0.2,0.3-0.4,0.5-0.6c9.4-11.6,35.2-17.9,53.5-20.6
			c11.7-1.7,20.9,6.9,28.2,13.7c3.2,2.6,5.7,4.8,6.9,5.8c3.8,3.1,5.2,0.5,5.2,0.5s-19.3-17.2-28.9-22.1s-7.2-0.4-23.1,0.2
			c-16,0.5-23.3,5.1-37.1,14.2S566.5,570.4,566.5,570.4z"/>
		<g class="st40">
			<path class="st41" d="M641.6,564.8c1.2,0.6,1.9,1.1,1.9,1.1C643.1,565.4,642.4,565,641.6,564.8z"/>
			<path class="st41" d="M639.7,564.5c0.7,0.1,1.4,0.2,1.9,0.4c-7.1-3.7-32.4-15.4-48.1-0.7c-18.4,17.3-7,14.5-4.9,14.3
				c0.4-0.1,0.7,0,1,0c4.2-6.6,13.6-19.3,29.4-18.9C627.6,559.8,634.4,562,639.7,564.5z"/>
		</g>
		<path class="st31" d="M669,580.7c2.3,0.9-2.6-3.4,2.6-3.5c5.2-0.2,4.1-3.5,3.7-4c-0.4-0.5-5.5-1.8-5.5-1.8
			C666.1,570.2,666.7,579.8,669,580.7z"/>
		<path class="st31" d="M666,570c0,0-4.6,0.4,2.1,3.5c6.7,3,17.2-1.1,17.2-1.1C675.6,576.3,666,570,666,570z"/>
		<path class="st31" d="M673.1,580.7c-0.7-4.8-7.3-7.2-7.3-7.2C666.5,576.2,673.8,585.5,673.1,580.7z"/>
		<path class="st31" d="M621.7,544.4c-7.4-1.7-27.4,10.2-49.8,24.1c-22.4,13.9-8.7,1.7-5.4-3.2s39.2-27,51.2-30
			c12.1-3.1,35.5,5.6,39.7,6.8s4.8,6,11.1,9.1c6.2,3.1-2,12.8-2,12.8C666.1,571.5,629.1,546.1,621.7,544.4z"/>
		<path class="st15" d="M573,598.6c4.2,1.6,2.9-1.3,2.9-1.3s-5.3-2.8-5.8-6.3s3.7-5,3.3-11.1c-0.4-6.2-7.2-0.8-7.2-0.8
			C561.8,582.4,568.8,597,573,598.6z"/>
		<path class="st31" d="M598,601c1.1,0.3,2.4,0.6,4,1c9.2,2.3,34.2-3.5,44.9-9.1c10.8-5.5,4.2-5.1,7.7-8.2c2-1.8,3.3-4.1,3.9-5.7
			c-4.2-1.1-13.7,11.7-23.1,16.2C627,599.1,605.9,599.4,598,601z"/>
		<path class="st54" d="M587.4,582.5c7.8-17.1,23.5-22,23.5-22c22.4-4.5,39.8,11.3,39.8,11.3"/>
		<path class="st35" d="M650.7,579.5c-0.5,0.1-1.6-2.3-1.6-2.3"/>
		<path class="st35" d="M648.9,580.4c-0.9-0.3-1.2-2.5-1.2-2.5"/>
		<path class="st35" d="M646.9,582c-0.5,0.1-0.8-1.8-0.8-1.8"/>
		<path class="st35" d="M645.2,583.2c-0.4,0.1-0.6-1.6-0.6-1.6"/>
		<line class="st35" x1="643.7" y1="584.7" x2="643.3" y2="582.8"/>
		<line class="st35" x1="642.2" y1="586.3" x2="641.5" y2="584.6"/>
		<line class="st35" x1="640.6" y1="587.8" x2="639.4" y2="585.3"/>
		<line class="st35" x1="638.1" y1="589" x2="636.8" y2="586.1"/>
		<line class="st35" x1="635.9" y1="588.9" x2="635.1" y2="586.8"/>
		<line class="st35" x1="634.6" y1="589.5" x2="633.8" y2="587"/>
		<line class="st35" x1="633" y1="590.6" x2="631.8" y2="588.2"/>
		<line class="st35" x1="631.1" y1="591.2" x2="630.3" y2="588.6"/>
		<line class="st35" x1="639.3" y1="588.4" x2="638.1" y2="585.9"/>
		<line class="st35" x1="641.3" y1="586.8" x2="640.7" y2="585.1"/>
		<line class="st35" x1="643" y1="584.8" x2="642.5" y2="583.8"/>
		<line class="st35" x1="629.6" y1="592" x2="629.3" y2="589.4"/>
		<line class="st35" x1="628" y1="593.1" x2="627.6" y2="590.1"/>
		<line class="st35" x1="624.1" y1="593.7" x2="624.1" y2="590.6"/>
		<line class="st35" x1="626.2" y1="592.5" x2="625.9" y2="590.3"/>
		<line class="st35" x1="621.5" y1="594.1" x2="621.2" y2="591.5"/>
		<line class="st35" x1="623.2" y1="593.4" x2="622.9" y2="591.2"/>
		<line class="st35" x1="618.4" y1="593.4" x2="618.6" y2="592.3"/>
		<line class="st35" x1="619.8" y1="594.3" x2="619.7" y2="591.2"/>
		<line class="st35" x1="616.7" y1="594.8" x2="616.4" y2="592.6"/>
		<line class="st35" x1="614.5" y1="595.1" x2="614.7" y2="592.8"/>
		<line class="st35" x1="612.2" y1="594.5" x2="612.4" y2="592.7"/>
		<line class="st35" x1="611" y1="595.2" x2="610.7" y2="593"/>
		<line class="st35" x1="609.2" y1="595" x2="609" y2="593.2"/>
		<line class="st35" x1="607.4" y1="594.8" x2="607.5" y2="592.5"/>
		<path class="st42" d="M577.7,592.4c2.2,0.1,0.3-1.4,0.3-1.4C577.5,590.6,575.5,592.2,577.7,592.4z"/>
	</g>
</g>
<path class="st55" d="M533.1,746.7c0,0,13.3-9.1,24-9.6s11.7-4.8,19.7-2.7s12.8,4.8,12.8,4.8S544.3,752,533.1,746.7z"/>
<path class="st56" d="M572.5,723.3l-5.7-1.1c-27-3-36.3,8.8-36.3,8.8c1.5,1.3,5.4-1,6.8-1.8c2.7,0.9,9.2,2.3,13.9-1.2
	c3.7,0.9,9.9,1.5,13.9-3.2C568.9,725.5,572.5,723.3,572.5,723.3z"/>
<path class="st57" d="M549.4,738.4c0,0,3.5-11.7,10.4-5.3c0,0,5.1-5.6,10.7-3.2s7.7,2.1,9.6,5.1c0,0-15.7-0.3-17.8,1.1
	C560,737.4,549.4,738.4,549.4,738.4z"/>
<path class="st5" d="M386.7,621.9c0,0-20.9,27.1-20.9,39.3s0.9,14.8,5.2,22.7c4.2,7.5,12.2,26.8,14.5,32.4
	c-5.4-32.1-15.7-65.2,1.8-92.8C386.9,622.4,386.7,621.9,386.7,621.9z"/>
<path class="st58" d="M422.9,564.4c-4.2-12.1-17.8-2.5-22,4.8c-2,0.7-8.2,5.2-13.9,11.8c0,0-11.2,10.3-26.9,25.1l-8.4,11.2
	c0,0-9.5,4.5-15.5,15.2c-5.6,10.1-3.8-13.4-3.6-16.4c-1.2,0.1,1.8-0.9-1.5-6c0-6-0.6-5.9-1.7-10c-1.2-7.5-9.1-13.7-3-20.9
	c5.8-8.4,7.2-19.7,12.5-27.6c8-10.5,35.1-29.4,22.3-42.8c-8-6.6-16.6,3.3-22.2,9.3c-7.5,6.6-17.2,11.3-22.1,20.5
	c-3.8,4.2-10,16.7-13.9,23.2c-2.9-6,0.7-15.5,1.9-21.2c2.6-8.3,5.9-16.5,8.8-24.8c8.8-9.9,15.8-21.1,24.2-31.4
	c4.5-7.2,10.4-19.3,4.8-25.4c-5.6-6-17.6,2.3-19.4,2.9c-5,2.7-9.7,5.8-14.2,9.1c-18.5,12.2-25.7,35.3-39.8,52
	c-10.6,33.1-4.7,69.5-17.2,102.6c-1.2,9.6,8.3,16.9,8.9,26.6c2.3,12.5,5.7,24.8,9.2,37.1c6.8,28.6,19.2,56.6,16.5,86.5
	c-1.1,34.5-76.9,190.6-84,224.3c-0.4,2.2-0.7,4.4-1.1,6.6l122.8,0.6c1.5-22.1,51.4-167,53.3-189c-1.2-13.1,7.1-24.1,9-36.4
	c2.7-11.7,2.6-23.5,1.5-35.6c1.4-43.7-28-93.5,5.5-131.1c8.5-6.4,11.1-16.5,17.1-24.6C416.5,583.2,424.1,574.2,422.9,564.4z"/>
<path class="st23" d="M297.6,709.2c-3.5-7-0.9-18.3-10.5-34.9c-9.6-16.6,6.1-23.6-21.8-33.2c-27.9-9.6,5.2-45.4,3.5-63.7
	s4.4-20.1,17.5-44.5c13.1-24.4,10.5-38.4,21.8-44.5c5.1-2.8,7.4-12.5,8.4-22.4c-2.5,1.6-4.9,3.3-7.3,5.1
	c-18.5,12.2-25.7,35.3-39.8,52c-10.6,33.1-4.7,69.5-17.2,102.6c-1.2,9.6,8.3,16.9,8.9,26.6c2.3,12.5,5.7,24.8,9.2,37.1
	c6.8,28.6,19.2,56.6,16.5,86.5c-1.1,34.5-76.9,190.6-84,224.3c-2.3,13.4,0.7-6.9-1.1,6.6c3.4-0.9,11.2-0.8,21.1-1.4
	C226.1,978.1,301.1,716.1,297.6,709.2z"/>
<path class="st23" d="M379.7,601.8c0,0-21.8,20.1-25.3,33.2c-3.5,13.1-12.2,57.6-12.2,31.4c0-26.2-6.1-27.6,1.7-38.4
	S377,590.4,379.7,601.8z"/>
<path class="st23" d="M330.8,529.5c0,0-25.3,38.4-25.3,46.3s-12.2,7.9-7.9,27.9c4.4,20.1-3.5,38.4,2.6,27.1
	c6.1-11.3-2.6-31.4,2.6-36.7C308.1,588.9,330.8,529.5,330.8,529.5z"/>
<path class="st5" d="M386.6,781.8c1.2-5.2,1.9-10.4,2.1-15.6c-4.5,8.6-14.7,27-23.9,35.6c-12.2,11.3-20.9,14-15.7,47.1
	c5.2,33.2-44.9,131.2-44.9,158.3c0,0.6,20.5,0.9,21,0.8c1.1-0.1,1.9-1.2,1.8-2.3c-0.3-5.4,47.2-148.4,50.6-187.5
	C376.5,805,384.7,794,386.6,781.8z"/>
<path class="st59" d="M412,559.9c0,0,8.6-0.6,5.8,5.4s-6.7,11.2-6.7,11.2s-6.3-5.4-10.3-4.5C396.8,572.9,408.9,559.9,412,559.9z"/>
<path class="st59" d="M311.8,473.1c0,0,3.1-0.9,8.1,3.6c4.9,4.5,12.5-2.7,16.6-6.7s5.4-7.6-0.4-9.8s-5.8-2.2-5.8-2.2
	S312.2,469,311.8,473.1z"/>
<path class="st59" d="M339.1,520c0,0,9,0.4,11.6,3.6c2.7,3.1,10.3-9,10.3-10.7s-5.4-6.7-11.2-4C344,511.5,339.1,520,339.1,520z"/>
<path class="st60" d="M306.6,561.2c0,0-10.7,18.9-10.7,22.9s-5.6,4-3.2,17s-1.9,29-1.9,29"/>
<polyline class="st61" points="553,659.5 777.6,746.1 973.2,746.1 "/>
<text transform="matrix(1 0 0 1 789.9048 737.7557)" class="st62 st63">Runny nose</text>
<text transform="matrix(1 0 0 1 62.2244 122.3209)" class="st62 st63">Temporal artery</text>
<text transform="matrix(1 0 0 1 62.2244 164.3209)" class="st62 st63">bulging and</text>
<text transform="matrix(1 0 0 1 62.2244 206.3209)" class="st62 st63">pulsating</text>
<text transform="matrix(1 0 0 1 692.5754 331.8275)" class="st62 st63">Severe headache,</text>
<text transform="matrix(1 0 0 1 707.9754 373.8275)" class="st62 st63">pain behind eyes</text>
<text transform="matrix(1 0 0 1 58.7744 327.921)" class="st62 st63">Small pupil</text>
<text transform="matrix(1 0 0 1 58.7744 369.921)" class="st62 st63">red conjunctiva </text>
<text transform="matrix(1 0 0 1 58.7744 574.1291)" class="st62 st63">Tearing</text>
<text transform="matrix(1 0 0 1 58.7744 731.8983)" class="st62 st63">Flushing of</text>
<text transform="matrix(1 0 0 1 58.7744 773.8983)" class="st62 st63">side of face,</text>
<text transform="matrix(1 0 0 1 58.7744 815.8983)" class="st62 st63">sweating</text>
<text transform="matrix(1 0 0 1 719.2338 130.8049)" class="st62 st63">Eyelid drooping,</text>
<text transform="matrix(1 0 0 1 775.8739 172.8049)" class="st62 st63">swelling and</text>
<text transform="matrix(1 0 0 1 664.9834 214.8049)" class="st62 st63">redness of one side</text>
<path class="st64" d="M425.8,596.7c0,0-1.1,13.5,6.4,16.6s-18.1,0.1-19.4-4.2C412.3,607.1,425.8,596.7,425.8,596.7z"/>
<path class="st65" d="M420.4,602.8c-3.4,2.7-6.5,5.4-6.5,6.5c0,0.8,3.3,2.2,7.4,3.6C419.5,610.5,420,605.3,420.4,602.8z"/>
<path class="st65" d="M470.6,596.3c0,0,4.1,8,0,10.1c-4,2,9.2-2.5,8.2-3.8S470.6,596.3,470.6,596.3z"/>
<polyline class="st61" points="422.6,602.4 245.9,391.4 61.2,391.4 "/>
<polyline class="st61" points="437.9,588 740.5,241.7 965.1,241.7 "/>
<polyline class="st61" points="479.9,588.1 769,398.9 960.9,398.9 "/>
<path class="st66" d="M413.6,608.1c0,0,11.7-15.9,35.7-18.2c0,0,15.6-0.4,29.7,12.3"/>
<path class="st25" d="M476.7,601.2c0,0-6-6.3-8.8-5.7c-2.8,0.5,1.1,11.7-2.9,12.2C461.1,608.2,481.5,607.3,476.7,601.2z"/>
<polyline class="st61" points="395.1,498.1 325.2,229.1 61.2,229.1 "/>
<polyline class="st67" points="423.7,662.5 203.8,596.4 67.3,596.4 "/>
<path class="st68" d="M464.1,750.3c-3.4-7.1-6.5-15.4-7.4-22.9c-2.5-18.9,6.6-14,22.2-39.4c15.6-25.5,4.9-21.4-6.6-47.6
	c-11.5-26.3-34.5-2.5-50.1-9c-14.5-6.1-12.7,16.8-17,33.2c-3.6-1.3-6-1.4-6-1.4s1.9,2.7,4.3,7.2c-2.1,8.6,2.8,13.9,7.3,17
	c1.2,3.9,2.3,8,2.9,12.3c2.8,19.6,22.5,55.3,61.2,89C502.2,812.3,480.2,776.3,464.1,750.3z"/>
<polyline class="st69" points="59.9,829.1 257,829.1 442.6,713.4 "/>
<path class="st70" d="M421,617c0,0-14.6-6.9,7.8-6.2s22.5,3.7,17.8,4.7l-0.3-2.2c0,0-3.6,10.3-10.6,7.2s-8.6,0.2-6.4,6.8
	s-2.7,31.4,0.5,40.5c3.9,11.1,4.2,39.1-1.1,26.3c-2.6-6.2-3.8-30.1-2.7-41.6C427,641.1,431.4,626.3,421,617z"/>
<path class="st71" d="M369.5,560.1c0,0,13.9-10.4,15.7-22.5c1.8-12.1,10.2-29.6,10.4-30.7c0.1-1,8-16.6,8-16.6"/>
<path class="st71" d="M373.3,564.1c0,0,10.1-8.4,11.3-12.4s5.2-8.9,6.3-13.5c3.2-13.3,8.3-27.7,22.4-34"/>
<path class="st71" d="M407.9,502.5c0,0-9.2,6.3-11.2,11.1c0,0,3.6-15.5,8.9-19.1"/>
</svg>
